<svg version="1.1" xmlns="http://www.w3.org/2000/svg" xmlns:xlink="http://www.w3.org/1999/xlink" preserveAspectRatio="xMidYMid meet" width="131" height="12" style=""><rect id="backgroundrect" width="100%" height="100%" x="0" y="0" fill="none" stroke="none"/><defs><path d="M208.52 131.63C211.65 131.63 214.19 134.16 214.19 137.29C214.19 138.48 214.19 136.4 214.19 137.59C214.19 140.72 211.65 143.26 208.52 143.26C183.38 143.26 113.6 143.26 88.45 143.26C85.33 143.26 82.79 140.72 82.79 137.59C82.79 136.4 82.79 138.48 82.79 137.29C82.79 134.16 85.33 131.63 88.45 131.63C113.6 131.63 183.38 131.63 208.52 131.63Z" id="b2532rk7n5"/></defs><g class="currentLayer" style=""><title>Layer 1</title><g id="svg_1" class=""><g id="svg_2"><g id="svg_3"><use xlink:href="#b2532rk7n5" opacity="1" fill="#ffffff" fill-opacity="1" id="svg_4" y="-131.6300048828125" x="-82.79000091552734"/><g id="svg_5"><use xlink:href="#b2532rk7n5" opacity="1" fill-opacity="0" stroke="#2cef94" stroke-width="0" stroke-opacity="1" id="svg_6" y="-131.6300048828125" x="-82.79000091552734"/></g></g></g></g></g></svg>