<svg id="06d6f13d-8f7f-4a3e-a21e-ef21be484342" data-name="Layer 1" xmlns="http://www.w3.org/2000/svg" viewBox="0 0 32 32"><defs><style>.\37 71ddda6-d1cd-45cc-a28f-50663383df95{fill:#006c33;}.ec26f0ea-5de1-4479-b8e3-a885bb8b72a6{fill:#a2ce90;}</style></defs><title>bin2_green copy 2</title><path class="771ddda6-d1cd-45cc-a28f-50663383df95" d="M8.27,31.11a.66.66,0,0,1-.67-.58L5.92,6.64a.6.6,0,0,1,.16-.44A.71.71,0,0,1,6.6,6H23.94a.7.7,0,0,1,.51.22.6.6,0,0,1,.16.44L22.93,30.53a.66.66,0,0,1-.67.58Z"/><path class="ec26f0ea-5de1-4479-b8e3-a885bb8b72a6" d="M23.94,6.23a.39.39,0,0,1,.42.39L22.68,30.51a.41.41,0,0,1-.42.35h-14a.41.41,0,0,1-.42-.35L6.17,6.62a.4.4,0,0,1,.43-.39H23.94m0-.5H6.6a.94.94,0,0,0-.7.3.87.87,0,0,0-.23.63L7.35,30.54a.91.91,0,0,0,.92.82h14a.91.91,0,0,0,.92-.82L24.86,6.66A.79.79,0,0,0,24.63,6a.94.94,0,0,0-.69-.3Z"/><rect class="771ddda6-d1cd-45cc-a28f-50663383df95" x="5.1" y="2.67" width="20.34" height="2.8" rx="0.87" ry="0.87"/><path class="ec26f0ea-5de1-4479-b8e3-a885bb8b72a6" d="M24.57,2.92a.62.62,0,0,1,.62.62V4.61a.62.62,0,0,1-.62.62H6a.61.61,0,0,1-.61-.62V3.54A.61.61,0,0,1,6,2.92H24.57m0-.5H6A1.12,1.12,0,0,0,4.85,3.54V4.61A1.12,1.12,0,0,0,6,5.73H24.57a1.13,1.13,0,0,0,1.12-1.12V3.54a1.12,1.12,0,0,0-1.12-1.12Z"/><path class="ec26f0ea-5de1-4479-b8e3-a885bb8b72a6" d="M15.37,28.09a.55.55,0,0,1-.55-.55V9.16a.55.55,0,0,1,.55-.54.54.54,0,0,1,.55.54V27.54A.55.55,0,0,1,15.37,28.09Z"/><path class="771ddda6-d1cd-45cc-a28f-50663383df95" d="M15.37,8.87a.29.29,0,0,1,.3.29V27.54a.29.29,0,0,1-.3.3.3.3,0,0,1-.3-.3V9.16a.3.3,0,0,1,.3-.29m0-.5a.79.79,0,0,0-.8.79V27.54a.8.8,0,0,0,1.6,0V9.16a.79.79,0,0,0-.8-.79Z"/><path class="ec26f0ea-5de1-4479-b8e3-a885bb8b72a6" d="M10.37,28.09a.51.51,0,0,1-.44-.54L9.27,9.22a.52.52,0,0,1,.41-.59H9.9a.51.51,0,0,1,.47.54L11,27.48a.51.51,0,0,1-.41.59Z"/><path class="771ddda6-d1cd-45cc-a28f-50663383df95" d="M9.92,8.87c.1,0,.19.13.2.3l.65,18.32c0,.18-.07.32-.18.33l-.21,0h0c-.1,0-.19-.13-.19-.3L9.52,9.21c0-.17.07-.32.18-.33h.22m0-.5H9.87l-.21,0A.75.75,0,0,0,9,9.23l.66,18.33a.74.74,0,0,0,.69.78l.26,0a.76.76,0,0,0,.64-.85L10.62,9.15a.75.75,0,0,0-.7-.78Z"/><path class="ec26f0ea-5de1-4479-b8e3-a885bb8b72a6" d="M19.72,28.07c-.25,0-.42-.26-.41-.58L20,9.16a.51.51,0,0,1,.45-.54h.23a.52.52,0,0,1,.42.59l-.7,18.33a.51.51,0,0,1-.44.54Z"/><path class="771ddda6-d1cd-45cc-a28f-50663383df95" d="M20.45,8.87h.22c.1,0,.18.15.18.33l-.7,18.33c0,.17-.09.3-.19.3h0l-.21,0c-.11,0-.19-.15-.18-.32l.69-18.33c0-.17.09-.3.2-.3m0-.5a.75.75,0,0,0-.7.78l-.69,18.33a.74.74,0,0,0,.65.84l.21,0h0a.75.75,0,0,0,.73-.79l.7-18.32a.76.76,0,0,0-.65-.85h-.25Z"/><rect class="771ddda6-d1cd-45cc-a28f-50663383df95" x="13.03" y="0.39" width="4.48" height="2.29" rx="0.87" ry="0.87"/><path class="ec26f0ea-5de1-4479-b8e3-a885bb8b72a6" d="M16.64.64a.61.61,0,0,1,.62.61v.56a.61.61,0,0,1-.62.61H13.89a.61.61,0,0,1-.61-.61V1.25a.61.61,0,0,1,.61-.61h2.75m0-.5H13.89a1.11,1.11,0,0,0-1.11,1.11v.56a1.11,1.11,0,0,0,1.11,1.11h2.75a1.12,1.12,0,0,0,1.12-1.11V1.25A1.12,1.12,0,0,0,16.64.14Z"/></svg>