<svg id="518860a0-d371-414d-a14c-bb7664a257a4" data-name="Layer 1" xmlns="http://www.w3.org/2000/svg" viewBox="0 0 32 32"><defs><style>.\32 d128064-cac7-4ae6-a010-57b3a233ae06{fill:#006c33;}.\36 75c4c57-3651-4e06-a1cb-59324096afd0{fill:#fff;}</style></defs><title>bin2_green</title><path class="2d128064-cac7-4ae6-a010-57b3a233ae06" d="M22.26,30.86h-14a.41.41,0,0,1-.42-.35L6.17,6.62a.4.4,0,0,1,.43-.39H23.94a.39.39,0,0,1,.42.39L22.68,30.51A.41.41,0,0,1,22.26,30.86Z"/><rect class="2d128064-cac7-4ae6-a010-57b3a233ae06" x="5.35" y="2.92" width="19.84" height="2.3" rx="0.62" ry="0.62"/><rect class="675c4c57-3651-4e06-a1cb-59324096afd0" x="5.89" y="18.05" width="18.97" height="0.6" rx="0.3" ry="0.3" transform="translate(-2.98 33.73) rotate(-90)"/><path class="675c4c57-3651-4e06-a1cb-59324096afd0" d="M10.12,9.17l.65,18.32c0,.18-.07.32-.18.33l-.21,0c-.11,0-.2-.13-.2-.3L9.52,9.21c0-.17.07-.32.18-.33h.21C10,8.86,10.11,9,10.12,9.17Z"/><path class="675c4c57-3651-4e06-a1cb-59324096afd0" d="M20.85,9.21l-.7,18.33c0,.17-.09.3-.2.3l-.21,0c-.11,0-.19-.15-.18-.32l.69-18.33c0-.17.1-.31.2-.3h.22C20.77,8.89,20.85,9,20.85,9.21Z"/><rect class="2d128064-cac7-4ae6-a010-57b3a233ae06" x="13.28" y="0.64" width="3.98" height="1.79" rx="0.62" ry="0.62"/></svg>