<svg id="29ccb474-c6a7-433e-8bcd-8939d76ce76d" data-name="Layer 1" xmlns="http://www.w3.org/2000/svg" viewBox="0 0 32 32"><defs><style>.\30 d8cd639-7cac-4633-baef-be85a05a86f5{fill:#006c33;}.\39 589fe96-4e02-49b8-8dd0-966407783692{fill:#a2ce90;}.\31 62b5b9b-bb41-4cb7-903f-d77169ab961f{fill:#e30613;}.\34 11de709-cb2e-4f80-be92-f80584650d24{fill:none;stroke:#e30613;stroke-miterlimit:10;stroke-width:2px;}</style></defs><title>bin2_green_nope</title><path class="0d8cd639-7cac-4633-baef-be85a05a86f5" d="M10.86,27.67a.56.56,0,0,1-.57-.5L9,8.71a.5.5,0,0,1,.14-.38.59.59,0,0,1,.44-.18H23a.59.59,0,0,1,.44.18.5.5,0,0,1,.14.38L22.25,27.17a.57.57,0,0,1-.58.5Z"/><path class="9589fe96-4e02-49b8-8dd0-966407783692" d="M23,8.4a.3.3,0,0,1,.33.3L22,27.15a.32.32,0,0,1-.33.27H10.86a.31.31,0,0,1-.32-.27L9.24,8.7a.3.3,0,0,1,.33-.3H23m0-.5H9.57A.82.82,0,0,0,9,8.16a.77.77,0,0,0-.21.57L10,27.19a.81.81,0,0,0,.82.73H21.67a.82.82,0,0,0,.83-.73L23.79,8.73a.76.76,0,0,0-.2-.57A.86.86,0,0,0,23,7.9Z"/><rect class="0d8cd639-7cac-4633-baef-be85a05a86f5" x="8.35" y="5.59" width="15.83" height="2.28" rx="0.87" ry="0.87"/><path class="9589fe96-4e02-49b8-8dd0-966407783692" d="M23.31,5.84a.62.62,0,0,1,.62.62V7a.62.62,0,0,1-.62.62H9.22A.62.62,0,0,1,8.6,7V6.46a.62.62,0,0,1,.62-.62H23.31m0-.5H9.22A1.12,1.12,0,0,0,8.1,6.46V7A1.12,1.12,0,0,0,9.22,8.12H23.31A1.12,1.12,0,0,0,24.43,7V6.46a1.12,1.12,0,0,0-1.12-1.12Z"/><path class="9589fe96-4e02-49b8-8dd0-966407783692" d="M16.31,25.34a.45.45,0,0,1-.44-.45V10.63a.45.45,0,0,1,.44-.45.47.47,0,0,1,.52.45V24.89a.45.45,0,0,1-.45.45Z"/><path class="0d8cd639-7cac-4633-baef-be85a05a86f5" d="M16.38,10.43a.2.2,0,0,1,.2.2V24.89a.2.2,0,0,1-.2.2h-.06a.2.2,0,0,1-.2-.2V10.63a.2.2,0,0,1,.2-.2h.06m0-.5h-.06a.7.7,0,0,0-.7.7V24.89a.7.7,0,0,0,.7.7h.06a.7.7,0,0,0,.7-.7V10.63a.7.7,0,0,0-.7-.7Z"/><path class="9589fe96-4e02-49b8-8dd0-966407783692" d="M12.48,25.34a.45.45,0,0,1-.39-.48l-.51-14.15c0-.28.14-.5.36-.51l.17,0a.44.44,0,0,1,.43.47l.51,14.16a.45.45,0,0,1-.37.51Z"/><path class="0d8cd639-7cac-4633-baef-be85a05a86f5" d="M12.14,10.43c.08,0,.14.1.15.23l.51,14.16c0,.13-.06.25-.14.25l-.17,0h0c-.07,0-.14-.1-.14-.23L11.83,10.7c0-.14.05-.25.13-.26h.18m0-.5h-.05l-.16,0a.68.68,0,0,0-.6.77l.51,14.15a.68.68,0,0,0,.64.72l.22,0a.7.7,0,0,0,.6-.77l-.51-14.16a.7.7,0,0,0-.65-.71Z"/><path class="9589fe96-4e02-49b8-8dd0-966407783692" d="M19.7,25.33a.46.46,0,0,1-.37-.51l.54-14.17a.44.44,0,0,1,.4-.47h.19a.45.45,0,0,1,.37.51l-.54,14.16a.45.45,0,0,1-.4.48Z"/><path class="0d8cd639-7cac-4633-baef-be85a05a86f5" d="M20.27,10.43h.17c.08,0,.14.12.14.25L20,24.85c0,.14-.07.24-.15.24h-.17c-.08,0-.14-.12-.14-.25l.54-14.17c0-.13.07-.23.15-.23m0-.5a.69.69,0,0,0-.65.72l-.54,14.16a.71.71,0,0,0,.61.77h.17a.69.69,0,0,0,.68-.72l.54-14.16a.71.71,0,0,0-.61-.77h-.2Z"/><rect class="0d8cd639-7cac-4633-baef-be85a05a86f5" x="14.48" y="3.82" width="3.58" height="1.88" rx="0.84" ry="0.84"/><path class="9589fe96-4e02-49b8-8dd0-966407783692" d="M17.22,4.07a.59.59,0,0,1,.58.59v.21a.58.58,0,0,1-.58.58h-1.9a.58.58,0,0,1-.59-.58V4.66a.59.59,0,0,1,.59-.59h1.9m0-.5h-1.9a1.09,1.09,0,0,0-1.09,1.09v.21A1.08,1.08,0,0,0,15.32,6h1.9A1.08,1.08,0,0,0,18.3,4.87V4.66a1.08,1.08,0,0,0-1.08-1.09Z"/><rect class="162b5b9b-bb41-4cb7-903f-d77169ab961f" x="0.6" y="15.02" width="29.52" height="2.05" transform="translate(13.76 -6.11) rotate(39.61)"/><circle class="411de709-cb2e-4f80-be92-f80584650d24" cx="16.18" cy="15.82" r="14.39"/></svg>