<svg id="1a474bc5-6d2e-4824-ba15-2b4efe69862a" data-name="Layer 1" xmlns="http://www.w3.org/2000/svg" viewBox="0 0 32 32"><defs><style>.\37 27305d7-b832-4657-a898-ae52f09bda6f{fill:#006c33;}.\30 733b7f7-e3bc-4433-a36f-7cdf41d6e863{fill:#a2ce90;}.\37 9183f25-831d-4490-b6ec-e2848243efbb{fill:none;stroke:#1d1d1b;stroke-linecap:round;stroke-miterlimit:10;stroke-width:1.5px;}</style></defs><title>bin2_green_eyeclosed</title><path class="727305d7-b832-4657-a898-ae52f09bda6f" d="M8.27,31.11a.66.66,0,0,1-.67-.58L5.92,6.64a.6.6,0,0,1,.16-.44A.71.71,0,0,1,6.6,6H23.94a.7.7,0,0,1,.51.22.6.6,0,0,1,.16.44L22.93,30.53a.66.66,0,0,1-.67.58Z"/><path class="0733b7f7-e3bc-4433-a36f-7cdf41d6e863" d="M23.94,6.23a.39.39,0,0,1,.42.39L22.68,30.51a.41.41,0,0,1-.42.35h-14a.41.41,0,0,1-.42-.35L6.17,6.62a.4.4,0,0,1,.43-.39H23.94m0-.5H6.6a.94.94,0,0,0-.7.3.87.87,0,0,0-.23.63L7.35,30.54a.91.91,0,0,0,.92.82h14a.91.91,0,0,0,.92-.82L24.86,6.66A.79.79,0,0,0,24.63,6a.94.94,0,0,0-.69-.3Z"/><rect class="727305d7-b832-4657-a898-ae52f09bda6f" x="5.1" y="2.67" width="20.34" height="2.8" rx="0.87" ry="0.87"/><path class="0733b7f7-e3bc-4433-a36f-7cdf41d6e863" d="M24.57,2.92a.62.62,0,0,1,.62.62V4.61a.62.62,0,0,1-.62.62H6a.61.61,0,0,1-.61-.62V3.54A.61.61,0,0,1,6,2.92H24.57m0-.5H6A1.12,1.12,0,0,0,4.85,3.54V4.61A1.12,1.12,0,0,0,6,5.73H24.57a1.13,1.13,0,0,0,1.12-1.12V3.54a1.12,1.12,0,0,0-1.12-1.12Z"/><path class="0733b7f7-e3bc-4433-a36f-7cdf41d6e863" d="M15.37,28.09a.55.55,0,0,1-.55-.55V18.9a.55.55,0,0,1,.55-.55.54.54,0,0,1,.55.55v8.64A.55.55,0,0,1,15.37,28.09Z"/><path class="727305d7-b832-4657-a898-ae52f09bda6f" d="M15.37,18.6a.29.29,0,0,1,.3.3v8.64a.29.29,0,0,1-.3.3.3.3,0,0,1-.3-.3V18.9a.3.3,0,0,1,.3-.3m0-.5h0a.79.79,0,0,0-.56.23.8.8,0,0,0-.24.57v8.64a.8.8,0,0,0,1.6,0V18.9a.8.8,0,0,0-.8-.8Z"/><path class="0733b7f7-e3bc-4433-a36f-7cdf41d6e863" d="M10.37,28.09a.43.43,0,0,1-.44-.38l-.66-8.93a.37.37,0,0,1,.1-.28.44.44,0,0,1,.32-.14h.22a.42.42,0,0,1,.45.37L11,27.65a.34.34,0,0,1-.09.28.45.45,0,0,1-.33.15Z"/><path class="727305d7-b832-4657-a898-ae52f09bda6f" d="M9.92,18.6a.19.19,0,0,1,.2.14l.65,8.93a.16.16,0,0,1-.18.16h-.22a.18.18,0,0,1-.19-.15l-.66-8.92c0-.09.07-.16.18-.16h.22m0-.5H9.68a.67.67,0,0,0-.5.23A.61.61,0,0,0,9,18.8l.66,8.93a.68.68,0,0,0,.69.61h.24a.69.69,0,0,0,.5-.23.59.59,0,0,0,.16-.47l-.66-8.92a.68.68,0,0,0-.69-.61Z"/><path class="0733b7f7-e3bc-4433-a36f-7cdf41d6e863" d="M19.73,28.08a.48.48,0,0,1-.33-.14.38.38,0,0,1-.09-.29L20,18.73a.44.44,0,0,1,.45-.38h.23a.46.46,0,0,1,.32.15.37.37,0,0,1,.1.28l-.7,8.93a.43.43,0,0,1-.44.38Z"/><path class="727305d7-b832-4657-a898-ae52f09bda6f" d="M20.45,18.6h.22a.18.18,0,0,1,.18.16l-.7,8.93a.18.18,0,0,1-.19.15h-.22c-.11,0-.19-.07-.18-.16l.69-8.93a.18.18,0,0,1,.2-.14m0-.5a.69.69,0,0,0-.7.61l-.69,8.92a.62.62,0,0,0,.16.47.67.67,0,0,0,.5.23h.22a.68.68,0,0,0,.71-.61l.7-8.93a.67.67,0,0,0-.16-.47.74.74,0,0,0-.51-.23h-.23Z"/><rect class="727305d7-b832-4657-a898-ae52f09bda6f" x="13.03" y="0.39" width="4.48" height="2.29" rx="0.87" ry="0.87"/><path class="0733b7f7-e3bc-4433-a36f-7cdf41d6e863" d="M16.64.64a.61.61,0,0,1,.62.61v.56a.61.61,0,0,1-.62.61H13.89a.61.61,0,0,1-.61-.61V1.25a.61.61,0,0,1,.61-.61h2.75m0-.5H13.89a1.11,1.11,0,0,0-1.11,1.11v.56a1.11,1.11,0,0,0,1.11,1.11h2.75a1.12,1.12,0,0,0,1.12-1.11V1.25A1.12,1.12,0,0,0,16.64.14Z"/><line class="79183f25-831d-4490-b6ec-e2848243efbb" x1="15.12" y1="16.67" x2="15.12" y2="20.38"/><line class="79183f25-831d-4490-b6ec-e2848243efbb" x1="18.56" y1="16.01" x2="20.27" y2="19.18"/><line class="79183f25-831d-4490-b6ec-e2848243efbb" x1="21.93" y1="13.99" x2="24.19" y2="16.21"/><line class="79183f25-831d-4490-b6ec-e2848243efbb" x1="11.46" y1="16.01" x2="9.74" y2="19.18"/><line class="79183f25-831d-4490-b6ec-e2848243efbb" x1="8.09" y1="13.99" x2="5.83" y2="16.21"/><path class="79183f25-831d-4490-b6ec-e2848243efbb" d="M24.19,11.92s-4.06,4.75-9.07,4.75-9.07-4.75-9.07-4.75"/></svg>