<svg id="faff1a90-2d0a-435e-9d35-48af26b7fff5" data-name="Layer 1" xmlns="http://www.w3.org/2000/svg" viewBox="0 0 583.57 99.38"><defs><style>.e214e9e0-bc2b-427f-b469-37e26742839d{fill:none;}.\32 dc24429-9003-4fe3-b05e-dd9bc9887a01{fill:#2d6938;}.\37 9ce0641-7f05-4b72-b641-5b9907b3861a{fill:#968179;}.ab019377-6278-4f28-ab8f-54ef90f16e2b{fill:#2e318e;}.\38 7cf95bf-2815-4ea2-bbc2-c0cde5f52193{fill:#874321;}.\32 04a447d-f308-49b7-a4a6-a1d284ffadaf{fill:#3b2314;}.\39 236b3ac-3200-40ee-a563-deb131d9e64f{fill:#4aa5f7;}.\36 3ed3831-8d31-45d9-984a-68250e28cf59{fill:#44934b;}.bc0a5c29-5ad4-4b1f-8734-f14703320d2f{fill:#f1ac3f;}.\34 1092377-240f-4912-b71f-2aa39911cae4{fill:#8d278b;}.\33 fefbb1b-f89f-4a2f-959d-40b952c4c465{fill:#fff;}.\33 77500ae-7bd5-48a5-ba69-0d99a8a16adb{fill:#e93f35;}</style></defs><title>Satakolkytlogo</title><path class="e214e9e0-bc2b-427f-b469-37e26742839d" d="M52.65,68.32a21.66,21.66,0,0,0-.46-4.18h0A21.66,21.66,0,0,1,52.65,68.32Z"/><path class="e214e9e0-bc2b-427f-b469-37e26742839d" d="M45.78,84.16h0a18.61,18.61,0,0,0,3.68-4.25h0A18.61,18.61,0,0,1,45.78,84.16Z"/><path class="e214e9e0-bc2b-427f-b469-37e26742839d" d="M26.75,76.06l-.42,0Z"/><path class="e214e9e0-bc2b-427f-b469-37e26742839d" d="M28.56,90.2h0Z"/><rect class="e214e9e0-bc2b-427f-b469-37e26742839d" x="249.26" y="6.41" width="0.03" height="16.47" transform="translate(233.88 263.87) rotate(-89.83)"/><polygon class="e214e9e0-bc2b-427f-b469-37e26742839d" points="291.88 77.44 291.83 77.36 291.83 77.36 291.88 77.44"/><polygon class="e214e9e0-bc2b-427f-b469-37e26742839d" points="288.75 72.85 288.75 72.85 285.45 67.99 285.45 67.99 288.75 72.85"/><polygon class="e214e9e0-bc2b-427f-b469-37e26742839d" points="291.54 89.29 291.54 89.29 299.97 89.31 299.97 89.31 291.54 89.29"/><polygon class="e214e9e0-bc2b-427f-b469-37e26742839d" points="274.49 78.02 274.49 78.02 276.94 81.61 276.94 81.61 274.49 78.02"/><polygon class="e214e9e0-bc2b-427f-b469-37e26742839d" points="278.88 84.46 278.88 84.46 281.41 88.18 281.41 88.18 278.88 84.46"/><path class="e214e9e0-bc2b-427f-b469-37e26742839d" d="M33.14,74.1h0c-.17.14-.34.28-.53.41h0C32.8,74.38,33,74.24,33.14,74.1Z"/><path class="e214e9e0-bc2b-427f-b469-37e26742839d" d="M50.83,59.93h0a18.26,18.26,0,0,0-3.16-4.82h0A18.26,18.26,0,0,1,50.83,59.93Z"/><path class="e214e9e0-bc2b-427f-b469-37e26742839d" d="M43.36,51.69h0c-1.66-1.07-3.34-2.1-5-3h0C40,49.59,41.7,50.62,43.36,51.69Z"/><path class="e214e9e0-bc2b-427f-b469-37e26742839d" d="M25.67,26.41l-.46,0Z"/><path class="e214e9e0-bc2b-427f-b469-37e26742839d" d="M35.33,65.73h0a7.82,7.82,0,0,1,.41,3.64A7.82,7.82,0,0,0,35.33,65.73Z"/><path class="e214e9e0-bc2b-427f-b469-37e26742839d" d="M25.33,42.67q2.51,1.09,5,2.13Q27.84,43.77,25.33,42.67Z"/><path class="e214e9e0-bc2b-427f-b469-37e26742839d" d="M33.14,46l0,0,0,0Z"/><path class="e214e9e0-bc2b-427f-b469-37e26742839d" d="M32.77,29.32c.09.09.17.19.26.29C32.94,29.51,32.86,29.41,32.77,29.32Z"/><path class="e214e9e0-bc2b-427f-b469-37e26742839d" d="M47.48,26.86h0a18.83,18.83,0,0,0-2.54-4.5h0A18.83,18.83,0,0,1,47.48,26.86Z"/><path class="e214e9e0-bc2b-427f-b469-37e26742839d" d="M41.84,19.32h0l-.09-.06-.1-.07.1.07Z"/><path class="e214e9e0-bc2b-427f-b469-37e26742839d" d="M49.23,33.4c.1.58.16,1.17.22,1.77h0c-.06-.6-.12-1.19-.22-1.77-.16-.92-.34-1.83-.56-2.73h0C48.89,31.57,49.07,32.48,49.23,33.4Z"/><path class="e214e9e0-bc2b-427f-b469-37e26742839d" d="M34.89,33.07c0,.12.09.24.12.37,0-.13-.08-.25-.11-.37Z"/><polygon class="e214e9e0-bc2b-427f-b469-37e26742839d" points="505.5 57.03 505.5 57.03 505.49 60.25 505.5 60.25 505.5 57.03"/><polygon class="e214e9e0-bc2b-427f-b469-37e26742839d" points="522.61 15.4 540.41 15.46 540.41 15.46 522.61 15.4 513.94 31.66 505.37 15.35 505.37 15.35 513.94 31.66 522.61 15.4"/><polygon class="e214e9e0-bc2b-427f-b469-37e26742839d" points="522.7 49.45 522.99 48.88 537.79 20.48 522.99 48.88 522.7 49.45"/><polygon class="e214e9e0-bc2b-427f-b469-37e26742839d" points="522.63 54.45 522.63 54.45 522.64 51.23 522.64 51.23 522.63 54.45"/><polygon class="e214e9e0-bc2b-427f-b469-37e26742839d" points="522.62 59.43 522.62 59.43 522.63 56.21 522.63 56.21 522.62 59.43"/><polygon class="e214e9e0-bc2b-427f-b469-37e26742839d" points="500.28 15.34 487.57 15.3 493.5 26.85 487.57 15.3 500.28 15.34"/><polygon class="e214e9e0-bc2b-427f-b469-37e26742839d" points="522.6 64.41 522.6 64.41 522.61 61.19 522.61 61.19 522.6 64.41"/><polygon class="e214e9e0-bc2b-427f-b469-37e26742839d" points="505.49 62.01 505.49 62.01 505.48 65.24 505.48 65.23 505.49 62.01"/><polygon class="e214e9e0-bc2b-427f-b469-37e26742839d" points="505.52 50.27 505.11 49.47 505.52 50.27 505.52 50.29 505.52 50.29 505.52 50.27"/><polygon class="e214e9e0-bc2b-427f-b469-37e26742839d" points="505.48 67 505.47 67 505.46 70.22 505.47 70.22 505.48 67"/><polygon class="e214e9e0-bc2b-427f-b469-37e26742839d" points="505.52 52.05 505.52 52.05 505.51 55.27 505.51 55.27 505.52 52.05"/><polygon class="e214e9e0-bc2b-427f-b469-37e26742839d" points="283.13 64.59 283.13 64.59 280.41 60.59 280.41 60.59 283.13 64.59"/><path class="e214e9e0-bc2b-427f-b469-37e26742839d" d="M26.69,26.51l-.44-.05Z"/><polygon class="e214e9e0-bc2b-427f-b469-37e26742839d" points="281.91 41.28 281.91 41.28 285.06 36.72 285.06 36.72 281.91 41.28"/><polygon class="e214e9e0-bc2b-427f-b469-37e26742839d" points="291.86 26.86 292.05 26.59 291.86 26.86 291.86 26.86"/><polygon class="e214e9e0-bc2b-427f-b469-37e26742839d" points="287.26 33.52 287.27 33.52 289.83 29.81 289.83 29.81 287.26 33.52"/><polygon class="e214e9e0-bc2b-427f-b469-37e26742839d" points="275.24 50.96 275.24 50.96 279.08 45.39 279.08 45.39 275.24 50.96"/><polygon class="e214e9e0-bc2b-427f-b469-37e26742839d" points="278.44 57.71 278.44 57.71 276.06 54.21 276.06 54.21 278.44 57.71"/><polygon class="e214e9e0-bc2b-427f-b469-37e26742839d" points="522.57 76.48 522.57 76.13 522.57 76.13 522.57 76.48"/><polygon class="e214e9e0-bc2b-427f-b469-37e26742839d" points="522.57 74.37 522.57 74.37 522.58 71.16 522.58 71.16 522.57 74.37"/><polygon class="e214e9e0-bc2b-427f-b469-37e26742839d" points="522.59 69.39 522.59 69.39 522.6 66.17 522.6 66.17 522.59 69.39"/><polygon class="e214e9e0-bc2b-427f-b469-37e26742839d" points="483.99 89.87 466.17 89.81 441.41 53.46 441.31 89.74 424.84 89.69 424.95 52.55 422.38 52.55 422.25 99.17 490.6 99.38 490.74 52.75 458.65 52.66 483.99 89.87"/><polygon class="e214e9e0-bc2b-427f-b469-37e26742839d" points="291.6 14.76 289.06 14.75 291.6 14.76 291.6 14.76"/><path class="e214e9e0-bc2b-427f-b469-37e26742839d" d="M254.68,89.18a.25.25,0,0,0,0-.07l-13.89,0,.19-63.8-.19,63.87Z"/><path class="e214e9e0-bc2b-427f-b469-37e26742839d" d="M325.77,15.14l.7-.18Z"/><path class="e214e9e0-bc2b-427f-b469-37e26742839d" d="M319.89,17.24l.49-.22Z"/><path class="e214e9e0-bc2b-427f-b469-37e26742839d" d="M324,15.69l.59-.18Z"/><path class="e214e9e0-bc2b-427f-b469-37e26742839d" d="M346.5,14.63l1.05.26Z"/><path class="e214e9e0-bc2b-427f-b469-37e26742839d" d="M341.5,13.78l.93.11Z"/><path class="e214e9e0-bc2b-427f-b469-37e26742839d" d="M344.84,14.27l1,.21Z"/><path class="e214e9e0-bc2b-427f-b469-37e26742839d" d="M343.17,14l.93.15Z"/><path class="e214e9e0-bc2b-427f-b469-37e26742839d" d="M333,13.76l.8-.08Z"/><path class="e214e9e0-bc2b-427f-b469-37e26742839d" d="M331.17,14l.79-.11Z"/><polygon class="e214e9e0-bc2b-427f-b469-37e26742839d" points="505.46 71.98 505.46 71.98 505.45 75.2 505.45 75.2 505.46 71.98"/><path class="e214e9e0-bc2b-427f-b469-37e26742839d" d="M329.37,14.29l.77-.14Z"/><path class="e214e9e0-bc2b-427f-b469-37e26742839d" d="M327.56,14.68l.76-.17Z"/><path class="e214e9e0-bc2b-427f-b469-37e26742839d" d="M415.88,87.47h0c0-2,0-4,0-6h0C415.89,83.45,415.89,85.46,415.88,87.47Z"/><path class="e214e9e0-bc2b-427f-b469-37e26742839d" d="M384.17,87v.43h0Z"/><path class="e214e9e0-bc2b-427f-b469-37e26742839d" d="M384.39,15h0c0,1,0,1.94,0,2.91h0Z"/><path class="e214e9e0-bc2b-427f-b469-37e26742839d" d="M339.83,13.63l.94.07Z"/><path class="e214e9e0-bc2b-427f-b469-37e26742839d" d="M334.8,13.61l.79,0Z"/><path class="e214e9e0-bc2b-427f-b469-37e26742839d" d="M400.21,15.08h0v0Z"/><path class="e214e9e0-bc2b-427f-b469-37e26742839d" d="M338.14,13.55l1,0Z"/><path class="e214e9e0-bc2b-427f-b469-37e26742839d" d="M415.91,77.56c0-.76,0-1.51,0-2.27,0,.76,0,1.51,0,2.27Z"/><path class="e214e9e0-bc2b-427f-b469-37e26742839d" d="M389.91,15.05h0Z"/><path class="e214e9e0-bc2b-427f-b469-37e26742839d" d="M407.91,74h0Z"/><path class="e214e9e0-bc2b-427f-b469-37e26742839d" d="M401.72,74Z"/><path class="e214e9e0-bc2b-427f-b469-37e26742839d" d="M322.21,16.3h0c-.61.22-1.2.45-1.78.7.58-.25,1.17-.48,1.78-.7Z"/><path class="e214e9e0-bc2b-427f-b469-37e26742839d" d="M37.27,16.49c.25.13.5.25.74.39C37.77,16.74,37.52,16.62,37.27,16.49Z"/><path class="e214e9e0-bc2b-427f-b469-37e26742839d" d="M35.28,34.68c0-.14-.06-.26-.08-.39C35.22,34.42,35.25,34.54,35.28,34.68Z"/><path class="e214e9e0-bc2b-427f-b469-37e26742839d" d="M39.26,17.6c.21.13.43.25.64.39C39.69,17.85,39.47,17.73,39.26,17.6Z"/><path class="e214e9e0-bc2b-427f-b469-37e26742839d" d="M28.47,59.51l-.83-.41Z"/><path class="e214e9e0-bc2b-427f-b469-37e26742839d" d="M30.48,60.63l-.67-.38Z"/><path class="e214e9e0-bc2b-427f-b469-37e26742839d" d="M27.68,26.67l-.41-.07Z"/><path class="e214e9e0-bc2b-427f-b469-37e26742839d" d="M28.64,26.91l-.36-.09Z"/><path class="e214e9e0-bc2b-427f-b469-37e26742839d" d="M32.32,28.9a3.08,3.08,0,0,0-.27-.24A3.08,3.08,0,0,1,32.32,28.9Z"/><path class="e214e9e0-bc2b-427f-b469-37e26742839d" d="M29.56,27.22l-.26-.09Z"/><path class="e214e9e0-bc2b-427f-b469-37e26742839d" d="M30.53,27.66l-.08-.05Z"/><path class="e214e9e0-bc2b-427f-b469-37e26742839d" d="M31.53,28.27l-.25-.18Z"/><path class="e214e9e0-bc2b-427f-b469-37e26742839d" d="M26.37,58.5l-.88-.39Z"/><path class="e214e9e0-bc2b-427f-b469-37e26742839d" d="M336.63,13.55h.54Z"/><path class="e214e9e0-bc2b-427f-b469-37e26742839d" d="M24.78,90.33h0Z"/><path class="e214e9e0-bc2b-427f-b469-37e26742839d" d="M26.86,90.31h0Z"/><path class="e214e9e0-bc2b-427f-b469-37e26742839d" d="M299.08,46.38a41.53,41.53,0,0,0-.34,5.12h0A41.53,41.53,0,0,1,299.08,46.38Z"/><path class="e214e9e0-bc2b-427f-b469-37e26742839d" d="M373.85,43.12a77,77,0,0,1,1.08,8.61h0a79.4,79.4,0,0,0-1.07-8.61c-3-13.51-10.56-23.25-24.05-27.58-.55-.17-1.1-.34-1.65-.49.55.15,1.1.32,1.65.49C363.3,19.87,370.84,29.61,373.85,43.12Z"/><path class="e214e9e0-bc2b-427f-b469-37e26742839d" d="M30.2,75.64l.39-.13Z"/><path class="e214e9e0-bc2b-427f-b469-37e26742839d" d="M29.07,75.91l.37-.08Z"/><path class="e214e9e0-bc2b-427f-b469-37e26742839d" d="M31.31,75.23l.34-.16Z"/><path class="e214e9e0-bc2b-427f-b469-37e26742839d" d="M27.78,76.05h0Z"/><path class="e214e9e0-bc2b-427f-b469-37e26742839d" d="M25.1,75.9l.44.06Z"/><polygon class="e214e9e0-bc2b-427f-b469-37e26742839d" points="269.44 70.6 269.44 70.6 272.37 74.91 272.37 74.91 269.44 70.6"/><path class="e214e9e0-bc2b-427f-b469-37e26742839d" d="M555.61,35.42h0c0,1.34,0,2.67,0,4h0C555.6,38.09,555.61,36.76,555.61,35.42Z"/><path class="e214e9e0-bc2b-427f-b469-37e26742839d" d="M555.62,32.13h0v.43h0Z"/><path class="e214e9e0-bc2b-427f-b469-37e26742839d" d="M571.41,64.86h0c0-1.34,0-2.68,0-4h0C571.42,62.18,571.42,63.52,571.41,64.86Z"/><path class="e214e9e0-bc2b-427f-b469-37e26742839d" d="M571.39,71.73h0c0-1.33,0-2.67,0-4h0C571.4,69.06,571.4,70.4,571.39,71.73Z"/><path class="e214e9e0-bc2b-427f-b469-37e26742839d" d="M571.35,85.5h0c0-1.34,0-2.68,0-4h0C571.36,82.82,571.36,84.16,571.35,85.5Z"/><path class="e214e9e0-bc2b-427f-b469-37e26742839d" d="M571.37,78.62h0l0-4h0Z"/><path class="e214e9e0-bc2b-427f-b469-37e26742839d" d="M555.55,56.06h0c0,1.34,0,2.68,0,4h0C555.54,58.74,555.54,57.4,555.55,56.06Z"/><path class="e214e9e0-bc2b-427f-b469-37e26742839d" d="M555.59,42.29h0c0,1.34,0,2.69,0,4h0C555.58,45,555.59,43.63,555.59,42.29Z"/><path class="e214e9e0-bc2b-427f-b469-37e26742839d" d="M555.53,62.93h0c0,1.34,0,2.68,0,4h0C555.52,65.61,555.52,64.27,555.53,62.93Z"/><path class="e214e9e0-bc2b-427f-b469-37e26742839d" d="M555.57,49.18h0c0,1.34,0,2.68,0,4h0C555.56,51.86,555.57,50.52,555.57,49.18Z"/><path class="e214e9e0-bc2b-427f-b469-37e26742839d" d="M551.81,15.76h0Z"/><path class="e214e9e0-bc2b-427f-b469-37e26742839d" d="M571.46,51.11h0c0-1.34,0-2.68,0-4h0C571.46,48.43,571.46,49.77,571.46,51.11Z"/><path class="e214e9e0-bc2b-427f-b469-37e26742839d" d="M571.5,37.35h0c0-1.34,0-2.68,0-4h0C571.51,34.67,571.5,36,571.5,37.35Z"/><path class="e214e9e0-bc2b-427f-b469-37e26742839d" d="M572,32.89h0Z"/><path class="e214e9e0-bc2b-427f-b469-37e26742839d" d="M571.43,58h0c0-1.34,0-2.67,0-4h0C571.44,55.31,571.44,56.64,571.43,58Z"/><path class="e214e9e0-bc2b-427f-b469-37e26742839d" d="M572.45,15.83h0l-4,0h0Z"/><path class="e214e9e0-bc2b-427f-b469-37e26742839d" d="M565.57,15.81h0l-4,0h0Z"/><path class="e214e9e0-bc2b-427f-b469-37e26742839d" d="M583.57,15.86Z"/><path class="e214e9e0-bc2b-427f-b469-37e26742839d" d="M558.68,15.79h0l-4,0h0Z"/><path class="e214e9e0-bc2b-427f-b469-37e26742839d" d="M579.32,15.85Z"/><path class="e214e9e0-bc2b-427f-b469-37e26742839d" d="M571.48,44.22h0c0-1.33,0-2.67,0-4h0C571.48,41.55,571.48,42.89,571.48,44.22Z"/><path class="e214e9e0-bc2b-427f-b469-37e26742839d" d="M562.61,90.18h0Z"/><polygon class="e214e9e0-bc2b-427f-b469-37e26742839d" points="505.42 86.92 505.41 86.92 505.4 90.03 511.15 90.04 505.41 90.03 505.42 86.92"/><polygon class="e214e9e0-bc2b-427f-b469-37e26742839d" points="505.43 81.94 505.43 81.94 505.42 85.16 505.42 85.16 505.43 81.94"/><polygon class="e214e9e0-bc2b-427f-b469-37e26742839d" points="505.44 76.96 505.44 76.96 505.44 80.18 505.44 80.18 505.44 76.96"/><path class="e214e9e0-bc2b-427f-b469-37e26742839d" d="M571.34,88.36h0V90.2h0Z"/><path class="e214e9e0-bc2b-427f-b469-37e26742839d" d="M555.51,69.82h0c0,1.33,0,2.67,0,4h0C555.5,72.49,555.5,71.15,555.51,69.82Z"/><polygon class="2dc24429-9003-4fe3-b05e-dd9bc9887a01" points="522.57 76.48 522.56 79.36 522.55 81.11 522.54 84.34 522.54 86.1 522.52 90.08 511.15 90.04 522.53 90.08 522.57 76.48"/><path class="2dc24429-9003-4fe3-b05e-dd9bc9887a01" d="M509.57,54.18a10.65,10.65,0,0,1,4.62.56,10.24,10.24,0,0,0,4.8.74,28.5,28.5,0,0,0,3.64-1V51.23a19,19,0,0,1-3.64,1,10.51,10.51,0,0,1-4.62-.56,10.22,10.22,0,0,0-4.8-.74c-1.42.17-2.67.87-4.06,1.13v3.22a2.62,2.62,0,0,0,.38-.09A20.44,20.44,0,0,1,509.57,54.18Z"/><polygon class="2dc24429-9003-4fe3-b05e-dd9bc9887a01" points="540.41 15.46 540.41 15.46 537.79 20.48 540.41 15.46"/><path class="2dc24429-9003-4fe3-b05e-dd9bc9887a01" d="M509.55,59.16a10.81,10.81,0,0,1,4.62.56,10.22,10.22,0,0,0,4.8.74,29.11,29.11,0,0,0,3.65-1V56.21a19,19,0,0,1-3.64,1,10.51,10.51,0,0,1-4.62-.56,10.36,10.36,0,0,0-4.8-.74c-1.42.17-2.67.87-4.07,1.13v3.22l.37-.08A19.26,19.26,0,0,1,509.55,59.16Z"/><path class="2dc24429-9003-4fe3-b05e-dd9bc9887a01" d="M505.52,50.29c.13,0,.26,0,.38-.09a20.44,20.44,0,0,1,3.68-1,10.65,10.65,0,0,1,4.62.56,10.26,10.26,0,0,0,4.81.74,29.6,29.6,0,0,0,3.68-1v0l.29-.56,14.8-28.4,2.62-5-17.8-.06-8.67,16.26-8.57-16.31-5.09,0-12.71,0,5.93,11.55,11.29,22,.32.63.41.81Z"/><path class="2dc24429-9003-4fe3-b05e-dd9bc9887a01" d="M509.54,64.14a10.81,10.81,0,0,1,4.62.56,10.2,10.2,0,0,0,4.8.74,28.5,28.5,0,0,0,3.64-1V61.19a19,19,0,0,1-3.65,1,10.66,10.66,0,0,1-4.62-.57,10.34,10.34,0,0,0-4.8-.74c-1.41.17-2.66.87-4.05,1.13v3.23l.38-.09A19.26,19.26,0,0,1,509.54,64.14Z"/><polygon class="2dc24429-9003-4fe3-b05e-dd9bc9887a01" points="505.37 15.35 500.28 15.34 505.37 15.35 505.37 15.35"/><path class="2dc24429-9003-4fe3-b05e-dd9bc9887a01" d="M522.54,86.1a20.1,20.1,0,0,1-3.65,1,10.65,10.65,0,0,1-4.62-.56,10.22,10.22,0,0,0-4.8-.74c-1.41.17-2.67.86-4.05,1.13V90h5.74l11.38,0Z"/><polygon class="2dc24429-9003-4fe3-b05e-dd9bc9887a01" points="493.5 26.85 504.79 48.83 505.11 49.47 504.79 48.83 493.5 26.85"/><polygon class="2dc24429-9003-4fe3-b05e-dd9bc9887a01" points="522.65 49.54 522.65 49.54 522.7 49.45 522.69 49.46 522.65 49.54"/><path class="2dc24429-9003-4fe3-b05e-dd9bc9887a01" d="M514.28,81.55a10.22,10.22,0,0,0-4.8-.74c-1.41.17-2.66.86-4.05,1.13v3.22l.38-.09a19.24,19.24,0,0,1,3.68-1,10.51,10.51,0,0,1,4.62.56,10.32,10.32,0,0,0,4.8.74,28.5,28.5,0,0,0,3.64-1V81.12a19.67,19.67,0,0,1-3.65,1A10.65,10.65,0,0,1,514.28,81.55Z"/><path class="2dc24429-9003-4fe3-b05e-dd9bc9887a01" d="M518.92,77.13a10.87,10.87,0,0,1-4.63-.56,10.2,10.2,0,0,0-4.8-.74c-1.41.16-2.66.86-4,1.13v3.22l.37-.09a19.24,19.24,0,0,1,3.68-1,10.51,10.51,0,0,1,4.62.56,10.34,10.34,0,0,0,4.8.74,29.11,29.11,0,0,0,3.65-1V76.13A19.35,19.35,0,0,1,518.92,77.13Z"/><path class="2dc24429-9003-4fe3-b05e-dd9bc9887a01" d="M509.5,74.1a10.81,10.81,0,0,1,4.62.56,10.22,10.22,0,0,0,4.8.75,28.68,28.68,0,0,0,3.65-1V71.16a19.78,19.78,0,0,1-3.64,1,10.81,10.81,0,0,1-4.62-.56,10.09,10.09,0,0,0-4.8-.74c-1.42.16-2.67.86-4.06,1.13V75.2l.37-.09A19.67,19.67,0,0,1,509.5,74.1Z"/><path class="2dc24429-9003-4fe3-b05e-dd9bc9887a01" d="M509.52,69.12a10.81,10.81,0,0,1,4.62.56,10.13,10.13,0,0,0,4.81.74,27.37,27.37,0,0,0,3.64-1V66.17a19.35,19.35,0,0,1-3.65,1,10.81,10.81,0,0,1-4.62-.56,10.22,10.22,0,0,0-4.8-.75c-1.41.17-2.67.87-4,1.14v3.22l.37-.09A19.67,19.67,0,0,1,509.52,69.12Z"/><polygon class="79ce0641-7f05-4b72-b641-5b9907b3861a" points="458.56 52.52 484.22 15.34 466.4 15.28 441.42 51.49 441.53 15.21 425.06 15.16 424.95 52.55 458.65 52.66 458.56 52.52"/><path class="ab019377-6278-4f28-ab8f-54ef90f16e2b" d="M275.1,43.2c2.31-.67,4.41-1.62,6.81-1.92l3.15-4.56a15.83,15.83,0,0,0-2.74.08c-2.88.34-5.41,1.82-8.26,2.29a21,21,0,0,1-8.31-.26l-2.39,3.46C267.17,43.31,270.89,44.4,275.1,43.2Z"/><path class="ab019377-6278-4f28-ab8f-54ef90f16e2b" d="M279.94,18.26a14.63,14.63,0,0,1,2.44-.46,21.07,21.07,0,0,1,9.05,1.1,27.63,27.63,0,0,0,5,1.35L299.35,16a20.67,20.67,0,0,1-7.55-1.19l-.2-.06h-2.54l-6.69,0Z"/><polygon class="ab019377-6278-4f28-ab8f-54ef90f16e2b" points="258.69 49.06 261.28 45.3 263.36 42.29 265.75 38.83 267.98 35.59 270.75 31.57 273.24 27.97 276.84 22.75 279.94 18.26 282.37 14.73 289.06 14.75 282.37 14.73 257.73 50.45 257.73 50.45 258.69 49.06"/><polygon class="ab019377-6278-4f28-ab8f-54ef90f16e2b" points="263.29 61.56 260.29 57.16 257.72 53.39 257.72 53.39 269.42 70.58 266.71 66.59 263.29 61.56"/><path class="ab019377-6278-4f28-ab8f-54ef90f16e2b" d="M275.07,51l.17,0,3.84-5.57a33.62,33.62,0,0,1-5,1.51,20.93,20.93,0,0,1-8.77-.37c-1.41-.39-2.69-.84-4-1.23l-2.59,3.76C264.24,49.87,269.18,52.69,275.07,51Z"/><path class="ab019377-6278-4f28-ab8f-54ef90f16e2b" d="M275.12,35.39c2.45-.7,4.64-1.73,7.21-2a22,22,0,0,1,4.94.1l2.56-3.71a17.89,17.89,0,0,0-7.49-.82c-2.87.34-5.41,1.82-8.25,2.29a21.71,21.71,0,0,1-3.34.29l-2.77,4A15.21,15.21,0,0,0,275.12,35.39Z"/><path class="ab019377-6278-4f28-ab8f-54ef90f16e2b" d="M265.25,54.34c-2.65-.72-4.87-1.69-7.53-2v1.06l2.57,3.77c4.91,1,9.44,3.17,14.76,1.65,1.17-.33,2.27-.74,3.39-1.1l-2.38-3.5a17.85,17.85,0,0,1-2,.5A21.09,21.09,0,0,1,265.25,54.34Z"/><path class="ab019377-6278-4f28-ab8f-54ef90f16e2b" d="M291.77,22.63a20,20,0,0,0-9.4-1.45,28.61,28.61,0,0,0-5.53,1.57L273.24,28a14.57,14.57,0,0,0,1.9-.39c2.45-.7,4.64-1.73,7.21-2a21.09,21.09,0,0,1,9.06,1.1l.45.15.19-.27,2.23-3.24A21,21,0,0,1,291.77,22.63Z"/><polygon class="ab019377-6278-4f28-ab8f-54ef90f16e2b" points="295.37 82.56 297.9 86.28 299.97 89.31 299.97 89.31 291.88 77.44 295.37 82.56"/><path class="ab019377-6278-4f28-ab8f-54ef90f16e2b" d="M282.23,68c-2.88.34-5.41,1.82-8.26,2.29a22,22,0,0,1-4.53.28l2.93,4.31a13.28,13.28,0,0,0,2.63-.48c2.45-.7,4.64-1.73,7.21-2a21.35,21.35,0,0,1,6.54.39L285.45,68A15.81,15.81,0,0,0,282.23,68Z"/><path class="ab019377-6278-4f28-ab8f-54ef90f16e2b" d="M291.61,77.29a20,20,0,0,0-9.41-1.45c-2.69.32-5.08,1.62-7.71,2.18l2.45,3.59a23,23,0,0,1,5.25-1.34,21.11,21.11,0,0,1,9.06,1.1,29.82,29.82,0,0,0,4.12,1.19l-3.49-5.12-.05-.08Z"/><path class="ab019377-6278-4f28-ab8f-54ef90f16e2b" d="M291.59,85.1a20,20,0,0,0-9.41-1.45,16.08,16.08,0,0,0-3.3.81l2.53,3.72.76-.1a20.91,20.91,0,0,1,9.05,1.1l.32.11,8.43,0-2.07-3A20.42,20.42,0,0,1,291.59,85.1Z"/><polygon class="ab019377-6278-4f28-ab8f-54ef90f16e2b" points="296.42 20.25 294.29 23.35 292.05 26.59 300.19 14.78 300.19 14.78 299.35 16 296.42 20.25"/><path class="ab019377-6278-4f28-ab8f-54ef90f16e2b" d="M265.22,62.15c-.67-.19-1.3-.39-1.93-.59l3.42,5a16.27,16.27,0,0,0,8.32,0c2.44-.7,4.63-1.73,7.21-2l.89-.07-2.72-4c-2.16.58-4.19,1.55-6.42,1.92A20.93,20.93,0,0,1,265.22,62.15Z"/><path class="87cf95bf-2815-4ea2-bbc2-c0cde5f52193" d="M93.27,43.22c1.79,4.55,3.52,9,5.3,13.47l-14.49,0c1.74-4.46,3.46-8.86,5.26-13.45l-16.67-.05L54.29,88.72l17.05,0L78,72.17l26.52.08L111.57,89l16.92,0-18.6-45.75Z"/><path class="204a447d-f308-49b7-a4a6-a1d284ffadaf" d="M200.54,43.54,205.84,57,191.34,57c1.75-4.46,3.47-8.86,5.26-13.44l-16.66-.05L161.56,89.05l17.05,0,6.63-16.6,26.52.08,7.08,16.71,16.92,0-18.6-45.75Z"/><path class="9236b3ac-3200-40ee-a563-deb131d9e64f" d="M324.56,15.51l1.21-.37Z"/><path class="9236b3ac-3200-40ee-a563-deb131d9e64f" d="M337.44,13.54h0Z"/><path class="9236b3ac-3200-40ee-a563-deb131d9e64f" d="M320.38,17h0Z"/><path class="9236b3ac-3200-40ee-a563-deb131d9e64f" d="M347.55,14.89l.61.16Z"/><path class="9236b3ac-3200-40ee-a563-deb131d9e64f" d="M345.8,14.48c.23,0,.47.09.7.15C346.27,14.57,346,14.53,345.8,14.48Z"/><path class="9236b3ac-3200-40ee-a563-deb131d9e64f" d="M326.47,15l1.09-.28Z"/><path class="9236b3ac-3200-40ee-a563-deb131d9e64f" d="M339.1,13.59l.73,0Z"/><path class="9236b3ac-3200-40ee-a563-deb131d9e64f" d="M344.1,14.14l.74.13Z"/><path class="9236b3ac-3200-40ee-a563-deb131d9e64f" d="M329.37,14.29l-1.05.22Z"/><path class="9236b3ac-3200-40ee-a563-deb131d9e64f" d="M333.78,13.68l1-.07Z"/><path class="9236b3ac-3200-40ee-a563-deb131d9e64f" d="M340.77,13.7l.73.08Z"/><path class="9236b3ac-3200-40ee-a563-deb131d9e64f" d="M324,15.69c-.58.19-1.17.39-1.76.61C322.8,16.08,323.39,15.88,324,15.69Z"/><path class="9236b3ac-3200-40ee-a563-deb131d9e64f" d="M335.59,13.57l1,0Z"/><path class="9236b3ac-3200-40ee-a563-deb131d9e64f" d="M342.43,13.89l.74.1Z"/><path class="9236b3ac-3200-40ee-a563-deb131d9e64f" d="M330.14,14.15l1-.16Z"/><path class="9236b3ac-3200-40ee-a563-deb131d9e64f" d="M335.59,13.57l-.79,0-1,.07-.8.08q-.51,0-1,.12l-.79.11-1,.16-.77.14-1.05.22-.76.17-1.09.28-.7.18-1.21.37-.59.18c-.58.19-1.17.39-1.76.61h0c-.61.22-1.2.45-1.78.7h0l-.49.22a33,33,0,0,0-18.32,19.19,43.57,43.57,0,0,0-2.49,10,41.53,41.53,0,0,0-.34,5.12l76.19.23a77,77,0,0,0-1.08-8.61c-3-13.51-10.55-23.25-24-27.58-.55-.17-1.1-.34-1.65-.49l-.61-.16-1.05-.26c-.23-.06-.47-.1-.7-.15l-1-.21-.74-.13-.93-.15-.74-.1-.93-.11-.73-.08-.94-.07-.73,0-1,0h-1.51Z"/><path class="9236b3ac-3200-40ee-a563-deb131d9e64f" d="M332,13.88q.51-.08,1-.12Q332.47,13.81,332,13.88Z"/><path class="9236b3ac-3200-40ee-a563-deb131d9e64f" d="M301.57,36.43a33,33,0,0,1,18.32-19.19,33,33,0,0,0-18.32,19.19,43.57,43.57,0,0,0-2.49,10A43.57,43.57,0,0,1,301.57,36.43Z"/><path class="ab019377-6278-4f28-ab8f-54ef90f16e2b" d="M40.12,87.4l-1.6.56Z"/><path class="ab019377-6278-4f28-ab8f-54ef90f16e2b" d="M32.32,28.9a5.89,5.89,0,0,1,.45.42A5.89,5.89,0,0,0,32.32,28.9Z"/><path class="ab019377-6278-4f28-ab8f-54ef90f16e2b" d="M34.64,29.56c3-.35,5.67-1.9,8.65-2.4a24.25,24.25,0,0,1,4.19-.3,18.83,18.83,0,0,0-2.54-4.5,15.1,15.1,0,0,0-2.73.49c-2.56.74-4.86,1.82-7.56,2.07a22,22,0,0,1-9.49-1.15L25,23.7v2.67l.24,0,.46,0,.58.05.44.05.58.09.41.07q.3.06.6.15l.36.09c.22.06.44.14.66.22l.26.09c.31.12.6.25.89.39l.08.05a8,8,0,0,1,.75.43l.25.18a6.41,6.41,0,0,1,.52.39,3.08,3.08,0,0,1,.27.24,5.89,5.89,0,0,1,.45.42c.09.09.17.19.26.29l0,.05C33.59,29.65,34.11,29.62,34.64,29.56Z"/><path class="ab019377-6278-4f28-ab8f-54ef90f16e2b" d="M27.27,26.6l-.58-.09Z"/><path class="ab019377-6278-4f28-ab8f-54ef90f16e2b" d="M42.09,63.77a56.52,56.52,0,0,1-6.76,2,7.82,7.82,0,0,1,.41,3.64,9,9,0,0,1-.19.93c2.6-.53,5-1.79,7.62-2.23a21.92,21.92,0,0,1,9.19.39l.28.08c0-.07,0-.15,0-.22a21.66,21.66,0,0,0-.46-4.18C49,63.31,45.69,62.74,42.09,63.77Z"/><path class="ab019377-6278-4f28-ab8f-54ef90f16e2b" d="M34.56,54.11c3-.36,5.67-1.91,8.66-2.4l.14,0c-1.66-1.07-3.34-2.1-5-3a17.57,17.57,0,0,1-3.73.82,21.83,21.83,0,0,1-9.49-1.15l-.18-.06,0,4.4A20.73,20.73,0,0,0,34.56,54.11Z"/><path class="ab019377-6278-4f28-ab8f-54ef90f16e2b" d="M33.1,46c-.89-.41-1.77-.82-2.68-1.19l-.05,0,.05,0C31.33,45.19,32.21,45.6,33.1,46Z"/><path class="ab019377-6278-4f28-ab8f-54ef90f16e2b" d="M24.92,44.47A22.3,22.3,0,0,0,33.14,46l0,0c-.89-.41-1.77-.82-2.68-1.19l-.05,0q-2.53-1-5-2.13l-.41-.17Z"/><path class="ab019377-6278-4f28-ab8f-54ef90f16e2b" d="M26.25,26.46l-.58-.05Z"/><path class="ab019377-6278-4f28-ab8f-54ef90f16e2b" d="M33,29.61a6,6,0,0,1,.38.47l-.33-.42Z"/><path class="ab019377-6278-4f28-ab8f-54ef90f16e2b" d="M27.78,76.05c-.34,0-.69,0-1,0C27.09,76.07,27.44,76.07,27.78,76.05Z"/><path class="ab019377-6278-4f28-ab8f-54ef90f16e2b" d="M35.74,69.37a7.44,7.44,0,0,1-2.08,4.25,7.4,7.4,0,0,0,1.89-3.32A9,9,0,0,0,35.74,69.37Z"/><path class="ab019377-6278-4f28-ab8f-54ef90f16e2b" d="M34.47,86.84c3-.36,5.67-1.91,8.65-2.4a23.26,23.26,0,0,1,2.66-.28,18.61,18.61,0,0,0,3.68-4.25,15.87,15.87,0,0,0-7.42.22c-2.57.73-4.86,1.82-7.56,2.06A21.83,21.83,0,0,1,25,81L24.81,81l0,4.4A20.75,20.75,0,0,0,34.47,86.84Z"/><path class="ab019377-6278-4f28-ab8f-54ef90f16e2b" d="M24.82,77.2a20.82,20.82,0,0,0,9.67,1.46c3-.36,5.67-1.91,8.65-2.4a22.4,22.4,0,0,1,8.08.11,22,22,0,0,0,1.1-4C49,71.51,45.72,70.9,42.06,72c-2.56.73-4.86,1.81-7.56,2.06-.45,0-.91.07-1.36.09-.17.14-.34.28-.53.41h0a6.79,6.79,0,0,1-.94.55l-.34.16a7.69,7.69,0,0,1-.72.28l-.39.13c-.25.07-.5.14-.76.19l-.37.08c-.37.06-.75.11-1.14.14h-.15c-.34,0-.69,0-1,0l-.42,0L25.54,76l-.44-.06-.28,0Z"/><path class="ab019377-6278-4f28-ab8f-54ef90f16e2b" d="M35.66,37.57c2.6-.53,5-1.79,7.61-2.23a22.8,22.8,0,0,1,6.18-.17c-.06-.6-.12-1.19-.22-1.77-.16-.92-.34-1.83-.56-2.73a15.3,15.3,0,0,0-6.48.37c-2.48.71-4.71,1.73-7.29,2,0,.12.08.24.11.37.07.28.13.56.19.85,0,.13,0,.25.08.39.07.43.12.88.16,1.35A14.63,14.63,0,0,0,35.66,37.57Z"/><path class="ab019377-6278-4f28-ab8f-54ef90f16e2b" d="M52.32,72.36a22,22,0,0,1-1.1,4,20,20,0,0,1-1.62,3.32,21.52,21.52,0,0,0,3-11.37c0,.07,0,.15,0,.22A21.26,21.26,0,0,1,52.32,72.36Z"/><path class="ab019377-6278-4f28-ab8f-54ef90f16e2b" d="M24.79,85.38l0-4.4V75.86l.28,0c-4.27-.7-8.28-3.5-8.74-7.53-.12-1.06-.19-2-.24-2.92l-15.6,0a7.05,7.05,0,0,0,0,1.65c.72,8.84,4.67,15.73,12.53,20.06a25.31,25.31,0,0,0,11.69,3.2V85.38Z"/><path class="ab019377-6278-4f28-ab8f-54ef90f16e2b" d="M37.27,16.49c-.39-.2-.79-.39-1.19-.57l.86.41Z"/><path class="ab019377-6278-4f28-ab8f-54ef90f16e2b" d="M34.68,16.74a22,22,0,0,1-9.49-1.16L25,15.52l0,4.4a20.71,20.71,0,0,0,9.67,1.46c2.51-.3,4.77-1.41,7.18-2.06l-.09-.07-.1-.07c-.58-.42-1.16-.82-1.75-1.19-.21-.14-.43-.26-.64-.39-.42-.25-.83-.49-1.25-.72-.24-.14-.49-.26-.74-.39l-.33-.16A15,15,0,0,1,34.68,16.74Z"/><path class="ab019377-6278-4f28-ab8f-54ef90f16e2b" d="M35.44,36c0-.47-.09-.92-.16-1.35.07.43.12.88.16,1.35.06.87.26,1.73.37,2.42h0c0-.27-.1-.57-.15-.88A14.63,14.63,0,0,1,35.44,36Z"/><path class="ab019377-6278-4f28-ab8f-54ef90f16e2b" d="M24.88,56.43V52.65l0-4.4V42.5l.41.17c-2.33-1-4.64-2.08-6.9-3.22-2.48-1.25-3.28-3.66-3-6.38.37-3.91,3.1-6.36,7.86-6.66a18.15,18.15,0,0,1,1.95,0l-.24,0V19.92l0-4.4V13.44a32,32,0,0,0-12.1,2.35C.63,20.63-6.48,38.65,8.29,49.69c4.74,3.55,10.14,5.55,15.54,7.72.55.22,1.11.46,1.66.7l-.61-.27Z"/><path class="ab019377-6278-4f28-ab8f-54ef90f16e2b" d="M33,62.39c-.2-.17-.4-.34-.62-.5a22.5,22.5,0,0,0-1.91-1.26,22.5,22.5,0,0,1,1.91,1.26,8.42,8.42,0,0,1,2,2.07A9,9,0,0,0,33,62.39Z"/><path class="ab019377-6278-4f28-ab8f-54ef90f16e2b" d="M33,62.39c.5,0,1,0,1.53-.1,3-.35,5.67-1.9,8.65-2.4a22.53,22.53,0,0,1,7.64,0,18.26,18.26,0,0,0-3.16-4.82,15.05,15.05,0,0,0-5.56.47c-2.56.74-4.86,1.82-7.56,2.07a22,22,0,0,1-9.49-1.15l-.18-.07v1.41l.61.27.88.39c.43.19.85.4,1.27.6l.83.41c.46.23.9.48,1.34.74l.67.38a22.5,22.5,0,0,1,1.91,1.26C32.61,62.05,32.81,62.22,33,62.39Z"/><path class="ab019377-6278-4f28-ab8f-54ef90f16e2b" d="M28.28,26.82q-.3-.09-.6-.15Q28,26.73,28.28,26.82Z"/><path class="ab019377-6278-4f28-ab8f-54ef90f16e2b" d="M25.54,76l.79.08Z"/><path class="ab019377-6278-4f28-ab8f-54ef90f16e2b" d="M29.45,13.84c.66.11,1.31.25,2,.42C30.76,14.09,30.11,14,29.45,13.84Z"/><path class="ab019377-6278-4f28-ab8f-54ef90f16e2b" d="M34.08,15.1c.42.15.83.31,1.24.48C34.91,15.41,34.5,15.25,34.08,15.1Z"/><path class="ab019377-6278-4f28-ab8f-54ef90f16e2b" d="M31.85,14.38c.51.14,1,.29,1.52.46C32.87,14.67,32.36,14.52,31.85,14.38Z"/><path class="ab019377-6278-4f28-ab8f-54ef90f16e2b" d="M38,16.88c.42.23.83.47,1.25.72C38.84,17.35,38.43,17.11,38,16.88Z"/><path class="ab019377-6278-4f28-ab8f-54ef90f16e2b" d="M47.37,38.48l-9,0Z"/><path class="ab019377-6278-4f28-ab8f-54ef90f16e2b" d="M39.9,18c.59.37,1.17.77,1.75,1.19C41.07,18.76,40.49,18.36,39.9,18Z"/><path class="ab019377-6278-4f28-ab8f-54ef90f16e2b" d="M35.2,34.29c-.06-.29-.12-.57-.19-.85C35.08,33.72,35.14,34,35.2,34.29Z"/><path class="ab019377-6278-4f28-ab8f-54ef90f16e2b" d="M31.65,75.07a6.79,6.79,0,0,0,.94-.55A6.79,6.79,0,0,1,31.65,75.07Z"/><path class="ab019377-6278-4f28-ab8f-54ef90f16e2b" d="M30.59,75.51a7.69,7.69,0,0,0,.72-.28A7.69,7.69,0,0,1,30.59,75.51Z"/><path class="ab019377-6278-4f28-ab8f-54ef90f16e2b" d="M37.92,88.15l-1.24.39Z"/><path class="ab019377-6278-4f28-ab8f-54ef90f16e2b" d="M27.64,59.1c-.42-.2-.84-.41-1.27-.6C26.8,58.69,27.22,58.9,27.64,59.1Z"/><path class="ab019377-6278-4f28-ab8f-54ef90f16e2b" d="M27.45,13.57c.46,0,.92.11,1.38.18C28.37,13.68,27.91,13.61,27.45,13.57Z"/><path class="ab019377-6278-4f28-ab8f-54ef90f16e2b" d="M25.43,13.44l1.24.06Z"/><path class="ab019377-6278-4f28-ab8f-54ef90f16e2b" d="M27.93,76.05c.39,0,.77-.08,1.14-.14C28.7,76,28.32,76,27.93,76.05Z"/><path class="ab019377-6278-4f28-ab8f-54ef90f16e2b" d="M29.81,60.25c-.44-.26-.88-.51-1.34-.74C28.93,59.74,29.37,60,29.81,60.25Z"/><path class="ab019377-6278-4f28-ab8f-54ef90f16e2b" d="M29.3,27.13c-.22-.08-.44-.16-.66-.22C28.86,27,29.08,27.05,29.3,27.13Z"/><path class="ab019377-6278-4f28-ab8f-54ef90f16e2b" d="M32.25,89.65c-.38.08-.77.15-1.15.21C31.48,89.8,31.87,89.73,32.25,89.65Z"/><path class="ab019377-6278-4f28-ab8f-54ef90f16e2b" d="M30.4,90c-.41.07-.83.12-1.25.16C29.57,90.09,30,90,30.4,90Z"/><path class="ab019377-6278-4f28-ab8f-54ef90f16e2b" d="M34.11,89.24,33,89.5Z"/><path class="ab019377-6278-4f28-ab8f-54ef90f16e2b" d="M36,88.74l-1.16.32Z"/><path class="ab019377-6278-4f28-ab8f-54ef90f16e2b" d="M29.44,75.83c.26,0,.51-.12.76-.19C30,75.71,29.7,75.78,29.44,75.83Z"/><path class="ab019377-6278-4f28-ab8f-54ef90f16e2b" d="M30.45,27.61c-.29-.14-.58-.27-.89-.39C29.87,27.34,30.16,27.47,30.45,27.61Z"/><path class="ab019377-6278-4f28-ab8f-54ef90f16e2b" d="M26.71,90.32c-.61,0-1.22,0-1.84,0C25.49,90.35,26.1,90.35,26.71,90.32Z"/><path class="ab019377-6278-4f28-ab8f-54ef90f16e2b" d="M34,30.94a5.84,5.84,0,0,0-.33-.53A5.84,5.84,0,0,1,34,30.94Z"/><path class="ab019377-6278-4f28-ab8f-54ef90f16e2b" d="M34.47,31.91c-.09-.2-.18-.4-.28-.59C34.29,31.51,34.38,31.71,34.47,31.91Z"/><path class="ab019377-6278-4f28-ab8f-54ef90f16e2b" d="M31.28,28.09a8,8,0,0,0-.75-.43A8,8,0,0,1,31.28,28.09Z"/><path class="ab019377-6278-4f28-ab8f-54ef90f16e2b" d="M32.05,28.66a6.41,6.41,0,0,0-.52-.39A6.41,6.41,0,0,1,32.05,28.66Z"/><path class="ab019377-6278-4f28-ab8f-54ef90f16e2b" d="M28.56,90.2c-.57,0-1.13.09-1.7.11C27.43,90.29,28,90.25,28.56,90.2Z"/><path class="ab019377-6278-4f28-ab8f-54ef90f16e2b" d="M34.88,33c-.07-.24-.15-.47-.23-.69C34.73,32.55,34.81,32.78,34.88,33Z"/><path class="ab019377-6278-4f28-ab8f-54ef90f16e2b" d="M25,89.23l-.19-.07v1.16h.09c.62,0,1.23,0,1.84,0h.15c.57,0,1.13-.06,1.7-.11h.14A22,22,0,0,1,25,89.23Z"/><path d="M165.77,14.63l-41.92-.12c0,5.34,0,10.6,0,16.28l12.85,0c-.06,19.61-.12,38.8-.18,58.08l15.83,0c0-9.65,0-19.18.1-28.71s.21-19.14.32-28.62l13,0C165.74,26.08,165.75,20.55,165.77,14.63Z"/><path d="M578.84,32.91h4l.67-.67c0-1.34,0-2.67,0-4l-1.92,1.91Z"/><path d="M561.55,15.79,545.15,32.1h4q8.19-8.16,16.4-16.3Z"/><path d="M554.68,15.77,542.77,27.61v4l15.92-15.82Z"/><path d="M542.79,20.73c0,1.32,0,2.66,0,4l9-9h-4Z"/><path d="M552,32.12h-9.27V27.61c0-1,0-1.92,0-2.86,0-1.36,0-2.7,0-4,0-1,0-1.92,0-2.87V15.74h6.75l-6.76,0c0,5.31,0,10.62,0,16.35l12.86,0H552Z"/><path d="M575.32,15.84,555.61,35.42c0,1.34,0,2.67,0,4l23.72-23.58Z"/><path d="M555.51,69.82c0,1.33,0,2.67,0,4L571.43,58c0-1.34,0-2.67,0-4Z"/><path d="M571.51,33.33,555.57,49.18c0,1.34,0,2.68,0,4L571.5,37.35C571.5,36,571.51,34.67,571.51,33.33Z"/><path d="M583.56,21.36c0,1.35,0,2.69,0,4v2.86c0,1.34,0,2.67,0,4v.67H573.4l10.12,0c0-5.64,0-11.17.05-17.06h0v2.63C583.56,19.45,583.56,20.41,583.56,21.36Z"/><path d="M542.81,15.74v2.12l2.13-2.12Z"/><path d="M569.5,90.2h1.84V88.37Z"/><path d="M583.54,25.38c0-1.33,0-2.67,0-4l-1.93,1.91L572,32.89h4Z"/><path d="M581.65,16.39l-26.06,25.9c0,1.34,0,2.69,0,4l28-27.82V15.86h-1.38Z"/><path d="M571.35,85.5c0-1.34,0-2.68,0-4l-8.75,8.7h4Z"/><path d="M566.63,90.19h0Z"/><path d="M555.73,90.16h4l11.62-11.55v-4Z"/><path d="M571.43,60.84,555.49,76.69c0,1.34,0,2.68,0,4l15.94-15.85C571.42,63.52,571.42,62.18,571.43,60.84Z"/><path d="M571.47,47.09,555.53,62.93c0,1.34,0,2.68,0,4l15.94-15.84C571.46,49.77,571.46,48.43,571.47,47.09Z"/><path d="M555.73,90.16h-.28V87.57c0-1.33,0-2.67,0-4V80.71c0-1.34,0-2.68,0-4v-.88q0,7.18,0,14.35h.28Z"/><path d="M555.62,32.56l16.83-16.73-4,0L552,32.12h3.59Z"/><path d="M571.41,67.73,555.47,83.57c0,1.33,0,2.67,0,4l15.94-15.84C571.4,70.4,571.4,69.06,571.41,67.73Z"/><path d="M571.49,40.22,555.55,56.06c0,1.34,0,2.68,0,4l15.94-15.85C571.48,42.89,571.48,41.55,571.49,40.22Z"/><path d="M384.2,77.46c0-2,0-4,0-6V67.54c0-2,0-4,0-6V57.63c0-2,0-4,0-6,0-1.29,0-2.59,0-3.88,0-2,0-4,0-6,0-1.29,0-2.59,0-3.88,0-2,0-4,0-6,0-1.29,0-2.59,0-3.88,0-2,0-4,0-6v-.42c-.07,22-.13,43.75-.2,65.54,0-1.87,0-3.74,0-5.61C384.19,80.05,384.2,78.76,384.2,77.46Z"/><path d="M413.56,74h2.36v0l-8,0h5.65Z"/><path d="M388,16.6A2,2,0,0,1,386.06,15h-1.67V18a2,2,0,0,1,0,3.88c0,2,0,4,0,6a2,2,0,0,1,0,3.88c0,2,0,4,0,6a2,2,0,0,1,0,3.88c0,2,0,4,0,6a2,2,0,0,1,0,3.88c0,2,0,4,0,6a2,2,0,0,1,0,3.88c0,2,0,4,0,6a2,2,0,0,1,0,3.89c0,2,0,4,0,6a2,2,0,0,1,0,3.88c0,1.87,0,3.74,0,5.61v.43a2,2,0,0,1,1.6,2,1.87,1.87,0,0,1,0,.34l4,0a2.07,2.07,0,0,1,0-.35,2,2,0,0,1,4,0,2.09,2.09,0,0,1,0,.35h4.05a2,2,0,1,1,3.88,0h4a2,2,0,0,1,0-.34,2,2,0,1,1,3.95,0,2.07,2.07,0,0,1,0,.35h4a2.07,2.07,0,0,1,0-.35,2,2,0,0,1,2.33-1.94c0-2,0-4,0-6a2,2,0,1,1,0-3.88c0-.76,0-1.51,0-2.27V74h-2.36a1.46,1.46,0,0,1,0,.22,2,2,0,0,1-4,0,1.49,1.49,0,0,1,0-.21h-4a1.49,1.49,0,0,1,0,.21,2,2,0,1,1-3.95,0,1.8,1.8,0,0,1,0-.22H400V71.48a1.73,1.73,0,0,1-.32,0,2,2,0,1,1,0-4,1.75,1.75,0,0,1,.32,0c0-2,0-4,0-6a1.73,1.73,0,0,1-.32,0,2,2,0,1,1,0-4,1.73,1.73,0,0,1,.32,0c0-2,0-4,0-6a1.73,1.73,0,0,1-.32,0,2,2,0,1,1,0-4,1.73,1.73,0,0,1,.32,0c0-2,0-4,0-6a1.75,1.75,0,0,1-.32,0,2,2,0,1,1,0-4c.11,0,.21,0,.32,0,0-2,0-4,0-6-.11,0-.21,0-.32,0a2,2,0,1,1,0-4c.11,0,.21,0,.32,0,0-2,0-4,0-6-.11,0-.21,0-.32,0a2,2,0,1,1,0-4,1.75,1.75,0,0,1,.32,0V15.08h-2.36a2,2,0,0,1-3.86,0h-4.08A2,2,0,0,1,388,16.6Zm0,6a2,2,0,1,1-2,2A2,2,0,0,1,388,22.56Zm3.82,48.93a2,2,0,1,1,2-2A2,2,0,0,1,391.78,71.49Zm4,.68a2,2,0,1,1-2,2A2,2,0,0,1,395.75,72.17Zm-3.94-10.6a2,2,0,1,1,2-2A2,2,0,0,1,391.81,61.57Zm0-9.92a2,2,0,1,1,2-2A2,2,0,0,1,391.84,51.65Zm0-9.92a2,2,0,1,1,2-2A2,2,0,0,1,391.87,41.73Zm0-9.92a2,2,0,1,1,2-2A2,2,0,0,1,391.9,31.81Zm-4,.67a2,2,0,1,1-2,2A2,2,0,0,1,387.93,32.48Zm0,9.92a2,2,0,1,1-2,2A2,2,0,0,1,387.9,42.4Zm0,9.91a2,2,0,1,1-2,2A2,2,0,0,1,387.87,52.31Zm0,9.92a2,2,0,1,1-2,2A2,2,0,0,1,387.84,62.23Zm0,9.92a2,2,0,1,1-2,2A2,2,0,0,1,387.81,72.15Zm0,13.87a2,2,0,1,1,2-2A2,2,0,0,1,387.77,86Zm4-4.61a2,2,0,1,1,2-2A2,2,0,0,1,391.75,81.41Zm3.95,4.64a2,2,0,1,1,2-2A2,2,0,0,1,395.7,86.05Zm15.88-3.91a2,2,0,1,1-2,2A2,2,0,0,1,411.58,82.14Zm-3.95-4.64a2,2,0,1,1-2,2A2,2,0,0,1,407.63,77.5Zm-4,4.62a2,2,0,1,1-2,2A2,2,0,0,1,403.65,82.12Zm-3.95-4.65a2,2,0,1,1-2,2A2,2,0,0,1,399.7,77.47Zm-3.94-11.26a2,2,0,1,1,2-2A2,2,0,0,1,395.76,66.21Zm0-9.92a2,2,0,1,1,2-2A2,2,0,0,1,395.79,56.29Zm0-9.92a2,2,0,1,1,2-2A2,2,0,0,1,395.82,46.37Zm0-9.91a2,2,0,1,1,2-2A2,2,0,0,1,395.85,36.46Zm0-13.88a2,2,0,1,1-2,2A2,2,0,0,1,395.9,22.58Zm-4-4.64a2,2,0,1,1-2,2A2,2,0,0,1,391.94,17.94Z"/><path d="M409.54,89.75l-3.89,0H389.78l-4,0h-1.58l31.71.1h-6.33Z"/><path d="M400.19,21.89c0,2,0,4,0,6,0,1.3,0,2.6,0,3.9,0,2,0,4,0,6,0,1.3,0,2.6,0,3.89,0,2,0,4,0,6v3.89c0,2,0,4,0,6,0,1.3,0,2.59,0,3.89,0,2,0,4,0,6,0,1.3,0,2.59,0,3.89V74h0c.06-19.64.12-39.11.18-58.69v6.63Z"/><path d="M397.85,15.08h2.36l-9,0h6.67Z"/><path class="63ed3831-8d31-45d9-984a-68250e28cf59" d="M89.34,43.2l2-5,2,5,16.62.05h3L91.44,0,69.71,43.14h3Z"/><polygon class="63ed3831-8d31-45d9-984a-68250e28cf59" points="93.27 43.22 93.27 43.22 109.89 43.27 109.89 43.27 93.27 43.22"/><polygon class="63ed3831-8d31-45d9-984a-68250e28cf59" points="89.34 43.2 72.67 43.15 72.67 43.15 89.34 43.2 89.34 43.2"/><path class="63ed3831-8d31-45d9-984a-68250e28cf59" d="M196.6,43.53q1-2.46,2-5,1,2.55,2,5l16.63.05h3.25L198.94.32,177.22,43.47h2.72Z"/><polygon class="63ed3831-8d31-45d9-984a-68250e28cf59" points="196.6 43.53 179.94 43.48 179.94 43.48 196.6 43.53 196.6 43.53"/><polygon class="63ed3831-8d31-45d9-984a-68250e28cf59" points="200.53 43.54 200.53 43.54 217.16 43.59 217.16 43.59 200.53 43.54"/><path class="ab019377-6278-4f28-ab8f-54ef90f16e2b" d="M375,52.35c-.2,19.57-12.34,33.79-31.88,36.78-9.62,1.48-18.87.1-27.36-4.92-10-5.9-15-15.06-16.6-26.26a43.85,43.85,0,0,1-.42-6.45h0a42.52,42.52,0,0,0,.42,6.45c1.57,11.2,6.6,20.36,16.6,26.26,8.49,5,17.74,6.4,27.37,4.92,19.53-3,31.67-17.21,31.87-36.78,0-.2-.05-.41-.07-.62h0C375,51.94,375,52.15,375,52.35Z"/><path class="ab019377-6278-4f28-ab8f-54ef90f16e2b" d="M299.16,58c1.57,11.2,6.6,20.36,16.6,26.26,8.49,5,17.74,6.4,27.36,4.92,19.54-3,31.68-17.21,31.88-36.78,0-.2-.05-.41-.07-.62l-76.19-.23A43.85,43.85,0,0,0,299.16,58Z"/><path class="bc0a5c29-5ad4-4b1f-8734-f14703320d2f" d="M384.17,87.38v2.29h0c0-.76,0-1.53,0-2.29Z"/><path class="bc0a5c29-5ad4-4b1f-8734-f14703320d2f" d="M385.77,89.33a2,2,0,0,0-1.6-2c0,.76,0,1.53,0,2.29h1.58A1.87,1.87,0,0,0,385.77,89.33Z"/><path class="bc0a5c29-5ad4-4b1f-8734-f14703320d2f" d="M393.71,89.35a2,2,0,0,0-4,0,2.07,2.07,0,0,0,0,.35h3.89A2.09,2.09,0,0,0,393.71,89.35Z"/><path class="bc0a5c29-5ad4-4b1f-8734-f14703320d2f" d="M401.64,89.37a2,2,0,1,0-3.92.34h3.88A2,2,0,0,0,401.64,89.37Z"/><path class="bc0a5c29-5ad4-4b1f-8734-f14703320d2f" d="M409.57,89.4a2,2,0,1,0-3.95,0,2,2,0,0,0,0,.34l3.89,0A2.07,2.07,0,0,0,409.57,89.4Z"/><path class="bc0a5c29-5ad4-4b1f-8734-f14703320d2f" d="M415.87,89.77h0c0-.77,0-1.53,0-2.3h0C415.88,88.24,415.87,89,415.87,89.77Z"/><path class="bc0a5c29-5ad4-4b1f-8734-f14703320d2f" d="M415.53,87.44a2,2,0,0,0-2,2,2.07,2.07,0,0,0,0,.35h2.29c0-.77,0-1.53,0-2.3A2,2,0,0,0,415.53,87.44Z"/><path class="bc0a5c29-5ad4-4b1f-8734-f14703320d2f" d="M385.8,79.41a2,2,0,0,0-1.6-2c0,1.3,0,2.59,0,3.88A2,2,0,0,0,385.8,79.41Z"/><path class="bc0a5c29-5ad4-4b1f-8734-f14703320d2f" d="M391.76,77.45a2,2,0,0,0,0,4,2,2,0,0,0,2-2A2,2,0,0,0,391.76,77.45Z"/><path class="bc0a5c29-5ad4-4b1f-8734-f14703320d2f" d="M399.69,81.43a2,2,0,1,0-2-2A2,2,0,0,0,399.69,81.43Z"/><path class="bc0a5c29-5ad4-4b1f-8734-f14703320d2f" d="M407.62,81.45a2,2,0,1,0-2-2A2,2,0,0,0,407.62,81.45Z"/><path class="bc0a5c29-5ad4-4b1f-8734-f14703320d2f" d="M415.9,81.44h0c0-1.29,0-2.58,0-3.88h0C415.91,78.86,415.9,80.15,415.9,81.44Z"/><path class="bc0a5c29-5ad4-4b1f-8734-f14703320d2f" d="M415.56,77.52a2,2,0,1,0,.34,3.92c0-1.29,0-2.58,0-3.88A2,2,0,0,0,415.56,77.52Z"/><path class="bc0a5c29-5ad4-4b1f-8734-f14703320d2f" d="M387.78,82.07a2,2,0,1,0,2,2A2,2,0,0,0,387.78,82.07Z"/><path class="bc0a5c29-5ad4-4b1f-8734-f14703320d2f" d="M395.72,82.09a2,2,0,1,0,2,2A2,2,0,0,0,395.72,82.09Z"/><path class="bc0a5c29-5ad4-4b1f-8734-f14703320d2f" d="M403.64,86.07a2,2,0,1,0-2-2A2,2,0,0,0,403.64,86.07Z"/><path class="bc0a5c29-5ad4-4b1f-8734-f14703320d2f" d="M411.57,86.1a2,2,0,1,0-2-2A2,2,0,0,0,411.57,86.1Z"/><path class="bc0a5c29-5ad4-4b1f-8734-f14703320d2f" d="M385.83,69.49a2,2,0,0,0-1.6-1.95v3.89A2,2,0,0,0,385.83,69.49Z"/><path class="bc0a5c29-5ad4-4b1f-8734-f14703320d2f" d="M391.79,67.53a2,2,0,1,0,2,2A2,2,0,0,0,391.79,67.53Z"/><path class="bc0a5c29-5ad4-4b1f-8734-f14703320d2f" d="M399.73,67.55a2,2,0,1,0,0,4,1.73,1.73,0,0,0,.32,0c0-1.3,0-2.59,0-3.89A1.75,1.75,0,0,0,399.73,67.55Z"/><path class="bc0a5c29-5ad4-4b1f-8734-f14703320d2f" d="M387.8,76.11a2,2,0,1,0-2-2A2,2,0,0,0,387.8,76.11Z"/><path class="bc0a5c29-5ad4-4b1f-8734-f14703320d2f" d="M395.73,76.13a2,2,0,1,0-2-2A2,2,0,0,0,395.73,76.13Z"/><path class="bc0a5c29-5ad4-4b1f-8734-f14703320d2f" d="M405.63,74h0l-3.91,0h0Z"/><path class="bc0a5c29-5ad4-4b1f-8734-f14703320d2f" d="M401.7,74.17a2,2,0,1,0,3.95,0,1.49,1.49,0,0,0,0-.21l-3.91,0A1.8,1.8,0,0,0,401.7,74.17Z"/><path class="bc0a5c29-5ad4-4b1f-8734-f14703320d2f" d="M409.63,74.19a2,2,0,0,0,4,0,1.46,1.46,0,0,0,0-.22h-3.91A1.49,1.49,0,0,0,409.63,74.19Z"/><path class="bc0a5c29-5ad4-4b1f-8734-f14703320d2f" d="M385.86,59.57a2,2,0,0,0-1.6-1.94v3.88A2,2,0,0,0,385.86,59.57Z"/><path class="bc0a5c29-5ad4-4b1f-8734-f14703320d2f" d="M391.82,57.61a2,2,0,1,0,2,2A2,2,0,0,0,391.82,57.61Z"/><path class="bc0a5c29-5ad4-4b1f-8734-f14703320d2f" d="M399.76,57.64a2,2,0,1,0,0,4,1.73,1.73,0,0,0,.32,0c0-1.3,0-2.59,0-3.89A1.73,1.73,0,0,0,399.76,57.64Z"/><path class="bc0a5c29-5ad4-4b1f-8734-f14703320d2f" d="M387.83,66.19a2,2,0,1,0-2-2A2,2,0,0,0,387.83,66.19Z"/><path class="bc0a5c29-5ad4-4b1f-8734-f14703320d2f" d="M395.78,62.26a2,2,0,1,0,2,2A2,2,0,0,0,395.78,62.26Z"/><path class="bc0a5c29-5ad4-4b1f-8734-f14703320d2f" d="M385.89,49.65a2,2,0,0,0-1.6-1.94c0,1.29,0,2.59,0,3.88A2,2,0,0,0,385.89,49.65Z"/><path class="bc0a5c29-5ad4-4b1f-8734-f14703320d2f" d="M391.85,47.69a2,2,0,1,0,2,2A2,2,0,0,0,391.85,47.69Z"/><path class="bc0a5c29-5ad4-4b1f-8734-f14703320d2f" d="M399.79,47.72a2,2,0,1,0,0,4,1.73,1.73,0,0,0,.32,0V47.75A1.73,1.73,0,0,0,399.79,47.72Z"/><path class="bc0a5c29-5ad4-4b1f-8734-f14703320d2f" d="M387.86,56.27a2,2,0,1,0-2-2A2,2,0,0,0,387.86,56.27Z"/><path class="bc0a5c29-5ad4-4b1f-8734-f14703320d2f" d="M395.81,52.34a2,2,0,1,0,2,2A2,2,0,0,0,395.81,52.34Z"/><path class="bc0a5c29-5ad4-4b1f-8734-f14703320d2f" d="M385.92,39.73a2,2,0,0,0-1.6-1.94c0,1.29,0,2.59,0,3.88A2,2,0,0,0,385.92,39.73Z"/><path class="bc0a5c29-5ad4-4b1f-8734-f14703320d2f" d="M391.88,37.78a2,2,0,1,0,2,2A2,2,0,0,0,391.88,37.78Z"/><path class="bc0a5c29-5ad4-4b1f-8734-f14703320d2f" d="M399.82,37.8a2,2,0,1,0,0,4,1.75,1.75,0,0,0,.32,0c0-1.29,0-2.59,0-3.89C400,37.82,399.93,37.8,399.82,37.8Z"/><path class="bc0a5c29-5ad4-4b1f-8734-f14703320d2f" d="M387.89,46.35a2,2,0,1,0-2-2A2,2,0,0,0,387.89,46.35Z"/><path class="bc0a5c29-5ad4-4b1f-8734-f14703320d2f" d="M395.84,42.42a2,2,0,1,0,2,2A2,2,0,0,0,395.84,42.42Z"/><path class="bc0a5c29-5ad4-4b1f-8734-f14703320d2f" d="M386,29.82a2,2,0,0,0-1.6-1.95c0,1.29,0,2.59,0,3.88A2,2,0,0,0,386,29.82Z"/><path class="bc0a5c29-5ad4-4b1f-8734-f14703320d2f" d="M391.91,27.86a2,2,0,1,0,2,2A2,2,0,0,0,391.91,27.86Z"/><path class="bc0a5c29-5ad4-4b1f-8734-f14703320d2f" d="M399.85,27.88a2,2,0,1,0,0,4c.11,0,.21,0,.32,0,0-1.3,0-2.6,0-3.9C400.06,27.9,400,27.88,399.85,27.88Z"/><path class="bc0a5c29-5ad4-4b1f-8734-f14703320d2f" d="M387.92,36.43a2,2,0,1,0-2-2A2,2,0,0,0,387.92,36.43Z"/><path class="bc0a5c29-5ad4-4b1f-8734-f14703320d2f" d="M395.87,32.5a2,2,0,1,0,2,2A2,2,0,0,0,395.87,32.5Z"/><path class="bc0a5c29-5ad4-4b1f-8734-f14703320d2f" d="M384.38,18c0,1.16,0,2.3,0,3.46,0-1.16,0-2.3,0-3.46Z"/><path class="bc0a5c29-5ad4-4b1f-8734-f14703320d2f" d="M386,19.9a2,2,0,0,0-1.6-1.95c0,1.16,0,2.3,0,3.46v.42A2,2,0,0,0,386,19.9Z"/><path class="bc0a5c29-5ad4-4b1f-8734-f14703320d2f" d="M391.93,21.9a2,2,0,1,0-2-2A2,2,0,0,0,391.93,21.9Z"/><path class="bc0a5c29-5ad4-4b1f-8734-f14703320d2f" d="M399.88,18a2,2,0,1,0,0,4c.11,0,.21,0,.32,0V18A1.75,1.75,0,0,0,399.88,18Z"/><path class="bc0a5c29-5ad4-4b1f-8734-f14703320d2f" d="M388,26.51a2,2,0,1,0-2-2A2,2,0,0,0,388,26.51Z"/><path class="bc0a5c29-5ad4-4b1f-8734-f14703320d2f" d="M395.88,26.54a2,2,0,1,0-2-2A2,2,0,0,0,395.88,26.54Z"/><path class="bc0a5c29-5ad4-4b1f-8734-f14703320d2f" d="M389.91,15.05Z"/><path class="bc0a5c29-5ad4-4b1f-8734-f14703320d2f" d="M388,16.6a2,2,0,0,0,1.93-1.55h-3.85A2,2,0,0,0,388,16.6Z"/><path class="bc0a5c29-5ad4-4b1f-8734-f14703320d2f" d="M395.91,16.62a2,2,0,0,0,1.94-1.54H394A2,2,0,0,0,395.91,16.62Z"/><path class="63ed3831-8d31-45d9-984a-68250e28cf59" d="M84.08,56.65l14.49,0c-1.78-4.51-3.51-8.92-5.3-13.47l-3.93,0C87.54,47.79,85.82,52.19,84.08,56.65Z"/><path class="63ed3831-8d31-45d9-984a-68250e28cf59" d="M91.29,38.2l-2,5,3.93,0Z"/><polygon class="63ed3831-8d31-45d9-984a-68250e28cf59" points="89.34 43.2 89.34 43.2 93.27 43.22 93.27 43.22 89.34 43.2"/><path class="63ed3831-8d31-45d9-984a-68250e28cf59" d="M191.34,57l14.5.05-5.3-13.48H196.6C194.81,48.11,193.09,52.51,191.34,57Z"/><path class="63ed3831-8d31-45d9-984a-68250e28cf59" d="M198.56,38.52q-1,2.55-2,5h3.93Q199.57,41.07,198.56,38.52Z"/><polygon class="63ed3831-8d31-45d9-984a-68250e28cf59" points="196.6 43.53 196.6 43.53 200.53 43.54 200.53 43.54 196.6 43.53"/><polygon class="204a447d-f308-49b7-a4a6-a1d284ffadaf" points="441.31 89.74 441.41 53.46 466.17 89.81 483.99 89.87 458.65 52.66 424.95 52.55 424.84 89.69 441.31 89.74"/><path class="41092377-240f-4912-b71f-2aa39911cae4" d="M544.93,15.74l-2.13,2.12c0,.95,0,1.91,0,2.87l5-5Z"/><path class="41092377-240f-4912-b71f-2aa39911cae4" d="M554.68,15.77Z"/><path class="41092377-240f-4912-b71f-2aa39911cae4" d="M551.81,15.76l-9,9c0,.94,0,1.9,0,2.86l11.91-11.84Z"/><path class="41092377-240f-4912-b71f-2aa39911cae4" d="M561.55,15.79Z"/><path class="41092377-240f-4912-b71f-2aa39911cae4" d="M558.68,15.79,542.76,31.61v.48h2.39l16.4-16.31Z"/><path class="41092377-240f-4912-b71f-2aa39911cae4" d="M568.43,15.81Z"/><path class="41092377-240f-4912-b71f-2aa39911cae4" d="M549.17,32.11H552l16.4-16.31h-2.86Q557.37,24,549.17,32.11Z"/><path class="41092377-240f-4912-b71f-2aa39911cae4" d="M555.62,32.56h0c0,1,0,1.91,0,2.86h0C555.61,34.47,555.62,33.52,555.62,32.56Z"/><path class="41092377-240f-4912-b71f-2aa39911cae4" d="M575.32,15.84Z"/><path class="41092377-240f-4912-b71f-2aa39911cae4" d="M572.45,15.83,555.62,32.56c0,1,0,1.91,0,2.86l19.71-19.58Z"/><path class="41092377-240f-4912-b71f-2aa39911cae4" d="M555.6,39.43h0c0,1,0,1.91,0,2.86h0Z"/><path class="41092377-240f-4912-b71f-2aa39911cae4" d="M582.19,15.86Z"/><path class="41092377-240f-4912-b71f-2aa39911cae4" d="M582.19,15.86h-2.87L555.6,39.43v2.86l26.06-25.9Z"/><path class="41092377-240f-4912-b71f-2aa39911cae4" d="M571.51,32.88v.45h0v-.44h0Z"/><path class="41092377-240f-4912-b71f-2aa39911cae4" d="M555.58,46.31h0c0,1,0,1.91,0,2.87h0C555.57,48.22,555.58,47.27,555.58,46.31Z"/><path class="41092377-240f-4912-b71f-2aa39911cae4" d="M571.51,32.88H572l9.67-9.62,1.93-1.91c0-.95,0-1.91,0-2.87l-28,27.82c0,1,0,1.91,0,2.87l15.94-15.85Z"/><path class="41092377-240f-4912-b71f-2aa39911cae4" d="M571.49,40.22h0c0-1,0-1.91,0-2.87h0C571.49,38.31,571.49,39.26,571.49,40.22Z"/><path class="41092377-240f-4912-b71f-2aa39911cae4" d="M555.56,53.2h0c0,.95,0,1.91,0,2.86h0Z"/><path class="41092377-240f-4912-b71f-2aa39911cae4" d="M578.84,32.91l2.78-2.76,1.92-1.91V25.38L576,32.9Z"/><path class="41092377-240f-4912-b71f-2aa39911cae4" d="M571.5,37.35,555.56,53.2v2.86l15.94-15.84C571.49,39.26,571.49,38.31,571.5,37.35Z"/><path class="41092377-240f-4912-b71f-2aa39911cae4" d="M571.47,47.09h0c0-1,0-1.91,0-2.87h0C571.47,45.18,571.47,46.13,571.47,47.09Z"/><path class="41092377-240f-4912-b71f-2aa39911cae4" d="M555.54,60.07h0v2.86h0C555.53,62,555.53,61,555.54,60.07Z"/><path class="41092377-240f-4912-b71f-2aa39911cae4" d="M571.48,44.22,555.54,60.07c0,1,0,1.91,0,2.86l15.94-15.84C571.47,46.13,571.47,45.18,571.48,44.22Z"/><path class="41092377-240f-4912-b71f-2aa39911cae4" d="M583.52,32.92v-.67l-.67.67Z"/><path class="41092377-240f-4912-b71f-2aa39911cae4" d="M555.52,67h0v2.87h0C555.51,68.86,555.51,67.91,555.52,67Z"/><path class="41092377-240f-4912-b71f-2aa39911cae4" d="M571.45,54h0V51.11h0Z"/><path class="41092377-240f-4912-b71f-2aa39911cae4" d="M571.46,51.11,555.52,67c0,1,0,1.91,0,2.87L571.45,54Z"/><path class="41092377-240f-4912-b71f-2aa39911cae4" d="M571.43,60.84h0c0-1,0-1.91,0-2.86h0Z"/><path class="41092377-240f-4912-b71f-2aa39911cae4" d="M555.49,73.82v0Z"/><path class="41092377-240f-4912-b71f-2aa39911cae4" d="M571.43,60.84V58L555.49,73.82v2.87Z"/><path class="41092377-240f-4912-b71f-2aa39911cae4" d="M571.41,67.73h0V64.86h0Z"/><path class="41092377-240f-4912-b71f-2aa39911cae4" d="M571.41,64.86,555.47,80.71v2.86l15.94-15.84Z"/><path class="41092377-240f-4912-b71f-2aa39911cae4" d="M571.38,74.6h0V71.73h0C571.39,72.68,571.39,73.64,571.38,74.6Z"/><path class="41092377-240f-4912-b71f-2aa39911cae4" d="M571.39,71.73,555.45,87.57v2.59h.28L571.38,74.6C571.39,73.64,571.39,72.68,571.39,71.73Z"/><path class="41092377-240f-4912-b71f-2aa39911cae4" d="M561.34,90.17h0Z"/><path class="41092377-240f-4912-b71f-2aa39911cae4" d="M571.36,81.48h0c0-1,0-1.91,0-2.86h0C571.37,79.57,571.37,80.52,571.36,81.48Z"/><path class="41092377-240f-4912-b71f-2aa39911cae4" d="M571.36,81.48c0-1,0-1.91,0-2.86L559.75,90.17h2.86Z"/><path class="41092377-240f-4912-b71f-2aa39911cae4" d="M571.34,88.37h0c0-1,0-1.9,0-2.86h0C571.35,86.46,571.35,87.41,571.34,88.37Z"/><path class="41092377-240f-4912-b71f-2aa39911cae4" d="M566.63,90.19h2.87l1.84-1.83c0-1,0-1.91,0-2.87Z"/><path class="9236b3ac-3200-40ee-a563-deb131d9e64f" d="M28.83,13.75l.62.09Z"/><path class="9236b3ac-3200-40ee-a563-deb131d9e64f" d="M33.37,14.84l.71.26Z"/><path class="9236b3ac-3200-40ee-a563-deb131d9e64f" d="M25,13.42v0h.42Z"/><path class="9236b3ac-3200-40ee-a563-deb131d9e64f" d="M31.41,14.26l.44.12Z"/><path class="9236b3ac-3200-40ee-a563-deb131d9e64f" d="M35.32,15.58l.76.34Z"/><path class="9236b3ac-3200-40ee-a563-deb131d9e64f" d="M26.67,13.5l.78.07Z"/><path class="9236b3ac-3200-40ee-a563-deb131d9e64f" d="M25.19,15.58a22,22,0,0,0,9.49,1.16,15,15,0,0,0,2.26-.41l-.86-.41-.76-.34c-.41-.17-.82-.33-1.24-.48l-.71-.26c-.5-.17-1-.32-1.52-.46l-.44-.12c-.65-.17-1.3-.31-2-.42l-.62-.09c-.46-.07-.92-.14-1.38-.18l-.78-.07-1.24-.06H25v2.08Z"/><path class="9236b3ac-3200-40ee-a563-deb131d9e64f" d="M44.94,22.36h0a16.31,16.31,0,0,0-3.1-3.05h0A16,16,0,0,1,44.94,22.36Z"/><path class="9236b3ac-3200-40ee-a563-deb131d9e64f" d="M34.65,24.92c2.7-.25,5-1.33,7.56-2.07a15.1,15.1,0,0,1,2.73-.49,16,16,0,0,0-3.1-3c-2.41.65-4.67,1.76-7.18,2.06A20.71,20.71,0,0,1,25,19.92V23.7l.18.07A22,22,0,0,0,34.65,24.92Z"/><path class="9236b3ac-3200-40ee-a563-deb131d9e64f" d="M33.65,30.41l-.24-.33C33.49,30.18,33.57,30.3,33.65,30.41Z"/><path class="9236b3ac-3200-40ee-a563-deb131d9e64f" d="M34.88,33v0h0Z"/><path class="9236b3ac-3200-40ee-a563-deb131d9e64f" d="M34.19,31.32c-.06-.13-.14-.26-.21-.38C34.05,31.06,34.13,31.19,34.19,31.32Z"/><path class="9236b3ac-3200-40ee-a563-deb131d9e64f" d="M48.67,30.67h0a26.77,26.77,0,0,0-1.19-3.81h0A26.77,26.77,0,0,1,48.67,30.67Z"/><path class="9236b3ac-3200-40ee-a563-deb131d9e64f" d="M34.65,32.33c-.06-.15-.12-.28-.18-.42C34.53,32.05,34.59,32.18,34.65,32.33Z"/><path class="9236b3ac-3200-40ee-a563-deb131d9e64f" d="M42.19,31a15.3,15.3,0,0,1,6.48-.37,26.77,26.77,0,0,0-1.19-3.81,24.25,24.25,0,0,0-4.19.3c-3,.5-5.63,2.05-8.65,2.4-.53.06-1,.09-1.56.1l.33.42.24.33a5.84,5.84,0,0,1,.33.53c.07.12.15.25.21.38s.19.39.28.59.12.27.18.42.16.45.23.69l0,0C37.48,32.77,39.71,31.75,42.19,31Z"/><path class="9236b3ac-3200-40ee-a563-deb131d9e64f" d="M35.81,38.45h0Z"/><path class="9236b3ac-3200-40ee-a563-deb131d9e64f" d="M49.73,38.49h0c-.11-1.21-.18-2.29-.28-3.32h0C49.55,36.2,49.62,37.28,49.73,38.49Z"/><path class="9236b3ac-3200-40ee-a563-deb131d9e64f" d="M49.45,35.17a22.8,22.8,0,0,0-6.18.17c-2.64.44-5,1.7-7.61,2.23.05.31.11.61.15.88h2.6l9,0h2.36C49.62,37.28,49.55,36.2,49.45,35.17Z"/><path class="9236b3ac-3200-40ee-a563-deb131d9e64f" d="M38.31,48.64h0Q35.77,47.25,33.14,46h0Q35.78,47.25,38.31,48.64Z"/><path class="9236b3ac-3200-40ee-a563-deb131d9e64f" d="M34.58,49.46a17.57,17.57,0,0,0,3.73-.82Q35.77,47.25,33.14,46a22.3,22.3,0,0,1-8.22-1.56v3.78l.18.06A21.83,21.83,0,0,0,34.58,49.46Z"/><path class="9236b3ac-3200-40ee-a563-deb131d9e64f" d="M44.63,52.51a17,17,0,0,1,3,2.6h0a17,17,0,0,0-3-2.6c-.42-.29-.85-.54-1.27-.82h0C43.78,52,44.21,52.22,44.63,52.51Z"/><path class="9236b3ac-3200-40ee-a563-deb131d9e64f" d="M44.63,52.51c-.42-.29-.85-.54-1.27-.82l-.14,0c-3,.49-5.64,2-8.66,2.4a20.73,20.73,0,0,1-9.67-1.46v3.78l.18.07a22,22,0,0,0,9.49,1.15c2.7-.25,5-1.33,7.56-2.07a15.05,15.05,0,0,1,5.56-.47A17,17,0,0,0,44.63,52.51Z"/><path class="9236b3ac-3200-40ee-a563-deb131d9e64f" d="M34.41,64a7.85,7.85,0,0,1,.92,1.77h0A7.85,7.85,0,0,0,34.41,64Z"/><path class="9236b3ac-3200-40ee-a563-deb131d9e64f" d="M50.83,59.93a20.49,20.49,0,0,1,1.36,4.21h0a20.49,20.49,0,0,0-1.36-4.21Z"/><path class="9236b3ac-3200-40ee-a563-deb131d9e64f" d="M42.09,63.77c3.6-1,6.86-.46,10.1.37a20.49,20.49,0,0,0-1.36-4.21,22.53,22.53,0,0,0-7.64,0c-3,.5-5.63,2-8.65,2.4-.52.06-1,.09-1.53.1A9,9,0,0,1,34.41,64a7.85,7.85,0,0,1,.92,1.77A56.52,56.52,0,0,0,42.09,63.77Z"/><path class="9236b3ac-3200-40ee-a563-deb131d9e64f" d="M33.66,73.62l-.52.48h0Z"/><path class="9236b3ac-3200-40ee-a563-deb131d9e64f" d="M33.14,74.1c.45,0,.91,0,1.36-.09,2.7-.25,5-1.33,7.56-2.06,3.66-1,7-.44,10.26.41a21.26,21.26,0,0,0,.32-3.82l-.28-.08a21.92,21.92,0,0,0-9.19-.39c-2.64.44-5,1.7-7.62,2.23a7.4,7.4,0,0,1-1.89,3.32Z"/><path class="9236b3ac-3200-40ee-a563-deb131d9e64f" d="M49.46,79.91c0-.08.09-.14.14-.22-.05.08-.1.14-.14.22Z"/><path class="9236b3ac-3200-40ee-a563-deb131d9e64f" d="M43.14,76.26c-3,.49-5.63,2-8.65,2.4a20.82,20.82,0,0,1-9.67-1.46V81L25,81a21.83,21.83,0,0,0,9.49,1.15c2.7-.24,5-1.33,7.56-2.06a15.87,15.87,0,0,1,7.42-.22c0-.08.09-.14.14-.22a20,20,0,0,0,1.62-3.32A22.4,22.4,0,0,0,43.14,76.26Z"/><path class="9236b3ac-3200-40ee-a563-deb131d9e64f" d="M28.71,90.19l.44-.06-.45.06Z"/><path class="9236b3ac-3200-40ee-a563-deb131d9e64f" d="M33,89.5l-.73.15Z"/><path class="9236b3ac-3200-40ee-a563-deb131d9e64f" d="M31.1,89.86l-.7.11Z"/><path class="9236b3ac-3200-40ee-a563-deb131d9e64f" d="M36.68,88.54l-.69.2Z"/><path class="9236b3ac-3200-40ee-a563-deb131d9e64f" d="M38.52,88l-.6.19Z"/><path class="9236b3ac-3200-40ee-a563-deb131d9e64f" d="M40.33,87.33l-.21.07.22-.07a18,18,0,0,0,5.44-3.17h0A17.91,17.91,0,0,1,40.33,87.33Z"/><path class="9236b3ac-3200-40ee-a563-deb131d9e64f" d="M34.83,89.06l-.72.18Z"/><path class="9236b3ac-3200-40ee-a563-deb131d9e64f" d="M45.78,84.16a23.26,23.26,0,0,0-2.66.28c-3,.49-5.64,2-8.65,2.4a20.75,20.75,0,0,1-9.68-1.46v3.78l.19.07a22,22,0,0,0,3.73,1l.45-.06c.42,0,.84-.09,1.25-.16l.7-.11c.38-.06.77-.13,1.15-.21L33,89.5l1.13-.26.72-.18L36,88.74l.69-.2,1.24-.39.6-.19,1.6-.56.21-.07A17.91,17.91,0,0,0,45.78,84.16Z"/><polygon class="3fefbb1b-f89f-4a2f-959d-40b952c4c465" points="522.64 51.23 522.64 51.23 522.65 49.54 522.65 49.54 522.64 51.23"/><polygon class="3fefbb1b-f89f-4a2f-959d-40b952c4c465" points="505.52 50.29 505.52 50.29 505.52 52.05 505.52 52.05 505.52 50.29"/><path class="3fefbb1b-f89f-4a2f-959d-40b952c4c465" d="M522.69,49.46a29.6,29.6,0,0,1-3.68,1,10.26,10.26,0,0,1-4.81-.74,10.65,10.65,0,0,0-4.62-.56,20.44,20.44,0,0,0-3.68,1c-.12,0-.25.06-.38.09v1.76c1.39-.26,2.64-1,4.06-1.13a10.22,10.22,0,0,1,4.8.74,10.51,10.51,0,0,0,4.62.56,19,19,0,0,0,3.64-1V49.54h0Z"/><polygon class="3fefbb1b-f89f-4a2f-959d-40b952c4c465" points="522.63 56.21 522.63 56.21 522.63 54.45 522.63 54.45 522.63 56.21"/><polygon class="3fefbb1b-f89f-4a2f-959d-40b952c4c465" points="505.51 55.27 505.51 55.27 505.5 57.03 505.5 57.03 505.51 55.27"/><path class="3fefbb1b-f89f-4a2f-959d-40b952c4c465" d="M514.37,56.64a10.51,10.51,0,0,0,4.62.56,19,19,0,0,0,3.64-1V54.45a28.5,28.5,0,0,1-3.64,1,10.24,10.24,0,0,1-4.8-.74,10.65,10.65,0,0,0-4.62-.56,20.44,20.44,0,0,0-3.68,1,2.62,2.62,0,0,1-.38.09V57c1.4-.26,2.65-1,4.07-1.13A10.36,10.36,0,0,1,514.37,56.64Z"/><polygon class="3fefbb1b-f89f-4a2f-959d-40b952c4c465" points="522.61 61.19 522.61 61.19 522.62 59.43 522.62 59.43 522.61 61.19"/><polygon class="3fefbb1b-f89f-4a2f-959d-40b952c4c465" points="505.5 60.25 505.49 60.25 505.49 62.01 505.49 62.01 505.5 60.25"/><path class="3fefbb1b-f89f-4a2f-959d-40b952c4c465" d="M514.34,61.62a10.66,10.66,0,0,0,4.62.57,19,19,0,0,0,3.65-1V59.43a29.11,29.11,0,0,1-3.65,1,10.22,10.22,0,0,1-4.8-.74,10.81,10.81,0,0,0-4.62-.56,19.26,19.26,0,0,0-3.68,1l-.37.08V62c1.39-.26,2.64-1,4.05-1.13A10.34,10.34,0,0,1,514.34,61.62Z"/><polygon class="3fefbb1b-f89f-4a2f-959d-40b952c4c465" points="505.48 65.23 505.48 65.24 505.47 67 505.48 67 505.48 65.23"/><polygon class="3fefbb1b-f89f-4a2f-959d-40b952c4c465" points="522.6 66.17 522.6 66.17 522.6 64.41 522.6 64.41 522.6 66.17"/><path class="3fefbb1b-f89f-4a2f-959d-40b952c4c465" d="M514.33,66.61a10.81,10.81,0,0,0,4.62.56,19.35,19.35,0,0,0,3.65-1V64.41a28.5,28.5,0,0,1-3.64,1,10.2,10.2,0,0,1-4.8-.74,10.81,10.81,0,0,0-4.62-.56,19.26,19.26,0,0,0-3.68,1l-.38.09V67c1.38-.27,2.64-1,4-1.14A10.22,10.22,0,0,1,514.33,66.61Z"/><polygon class="3fefbb1b-f89f-4a2f-959d-40b952c4c465" points="522.58 70.87 522.58 71.16 522.58 71.16 522.58 70.87 522.59 69.39 522.59 69.39 522.58 70.87"/><polygon class="3fefbb1b-f89f-4a2f-959d-40b952c4c465" points="505.46 70.82 505.47 70.22 505.46 70.22 505.46 70.82 505.46 71.98 505.46 71.98 505.46 70.82"/><path class="3fefbb1b-f89f-4a2f-959d-40b952c4c465" d="M514.32,71.59a10.81,10.81,0,0,0,4.62.56,19.78,19.78,0,0,0,3.64-1V69.39a27.37,27.37,0,0,1-3.64,1,10.13,10.13,0,0,1-4.81-.74,10.81,10.81,0,0,0-4.62-.56,19.67,19.67,0,0,0-3.68,1l-.37.09V72c1.39-.27,2.64-1,4.06-1.13A10.09,10.09,0,0,1,514.32,71.59Z"/><polygon class="3fefbb1b-f89f-4a2f-959d-40b952c4c465" points="522.57 76.13 522.57 76.13 522.57 74.37 522.57 74.37 522.57 76.13"/><polygon class="3fefbb1b-f89f-4a2f-959d-40b952c4c465" points="505.45 75.2 505.45 75.2 505.44 76.96 505.44 76.96 505.45 75.2"/><path class="3fefbb1b-f89f-4a2f-959d-40b952c4c465" d="M514.29,76.57a10.87,10.87,0,0,0,4.63.56,19.35,19.35,0,0,0,3.65-1V74.37a28.68,28.68,0,0,1-3.65,1,10.22,10.22,0,0,1-4.8-.75,10.81,10.81,0,0,0-4.62-.56,19.67,19.67,0,0,0-3.68,1l-.37.09V77c1.38-.27,2.63-1,4-1.13A10.2,10.2,0,0,1,514.29,76.57Z"/><polygon class="3fefbb1b-f89f-4a2f-959d-40b952c4c465" points="505.44 80.18 505.44 80.18 505.43 81.94 505.43 81.94 505.44 80.18"/><path class="3fefbb1b-f89f-4a2f-959d-40b952c4c465" d="M514.11,79.65a10.51,10.51,0,0,0-4.62-.56,19.24,19.24,0,0,0-3.68,1l-.37.09v1.76c1.39-.27,2.64-1,4.05-1.13a10.22,10.22,0,0,1,4.8.74,10.65,10.65,0,0,0,4.62.56,19.67,19.67,0,0,0,3.65-1V79.36a29.11,29.11,0,0,1-3.65,1A10.34,10.34,0,0,1,514.11,79.65Z"/><polygon class="3fefbb1b-f89f-4a2f-959d-40b952c4c465" points="505.42 85.16 505.42 85.16 505.41 86.92 505.42 86.92 505.42 85.16"/><path class="3fefbb1b-f89f-4a2f-959d-40b952c4c465" d="M514.1,84.63a10.51,10.51,0,0,0-4.62-.56,19.24,19.24,0,0,0-3.68,1l-.38.09v1.76c1.38-.27,2.64-1,4.05-1.13a10.22,10.22,0,0,1,4.8.74,10.65,10.65,0,0,0,4.62.56,20.1,20.1,0,0,0,3.65-1V84.34a28.5,28.5,0,0,1-3.64,1A10.32,10.32,0,0,1,514.1,84.63Z"/><polygon class="9236b3ac-3200-40ee-a563-deb131d9e64f" points="300.19 14.78 300.19 14.78 291.6 14.76 291.6 14.76 300.19 14.78"/><path class="9236b3ac-3200-40ee-a563-deb131d9e64f" d="M291.8,14.82A20.67,20.67,0,0,0,299.35,16l.84-1.23-8.59,0Z"/><path class="9236b3ac-3200-40ee-a563-deb131d9e64f" d="M291.77,22.63a21,21,0,0,0,2.51.72l2.14-3.1a27.63,27.63,0,0,1-5-1.35,21.07,21.07,0,0,0-9.05-1.1,14.63,14.63,0,0,0-2.44.46l-3.1,4.49a28.61,28.61,0,0,1,5.53-1.57A20,20,0,0,1,291.77,22.63Z"/><polygon class="9236b3ac-3200-40ee-a563-deb131d9e64f" points="289.83 29.81 289.83 29.81 291.86 26.86 291.86 26.86 289.83 29.81"/><path class="9236b3ac-3200-40ee-a563-deb131d9e64f" d="M274.09,31.28c2.84-.47,5.38-2,8.25-2.29a17.89,17.89,0,0,1,7.49.82l2-2.95-.45-.15a21.09,21.09,0,0,0-9.06-1.1c-2.57.24-4.76,1.27-7.21,2a14.57,14.57,0,0,1-1.9.39l-2.49,3.6A21.71,21.71,0,0,0,274.09,31.28Z"/><polygon class="9236b3ac-3200-40ee-a563-deb131d9e64f" points="285.06 36.72 285.06 36.72 287.27 33.52 287.26 33.52 285.06 36.72"/><path class="9236b3ac-3200-40ee-a563-deb131d9e64f" d="M274.06,39.09c2.85-.47,5.38-2,8.26-2.29a15.83,15.83,0,0,1,2.74-.08l2.21-3.2a22,22,0,0,0-4.94-.1c-2.57.24-4.76,1.27-7.21,2a15.21,15.21,0,0,1-7.14.2l-2.23,3.24A21,21,0,0,0,274.06,39.09Z"/><polygon class="9236b3ac-3200-40ee-a563-deb131d9e64f" points="279.08 45.39 279.08 45.39 281.91 41.28 281.91 41.28 279.08 45.39"/><path class="9236b3ac-3200-40ee-a563-deb131d9e64f" d="M274,46.9a33.62,33.62,0,0,0,5-1.51l2.83-4.11c-2.4.3-4.5,1.25-6.81,1.92-4.21,1.2-7.93.11-11.74-.91l-2.08,3c1.3.39,2.58.84,4,1.23A20.93,20.93,0,0,0,274,46.9Z"/><polygon class="9236b3ac-3200-40ee-a563-deb131d9e64f" points="274.54 51.97 276.06 54.21 276.06 54.21 274.54 51.97 275.24 50.96 275.24 50.96 274.54 51.97"/><path class="9236b3ac-3200-40ee-a563-deb131d9e64f" d="M265.25,54.34a21.09,21.09,0,0,0,8.77.37,17.85,17.85,0,0,0,2-.5L274.54,52l.7-1-.17,0c-5.89,1.68-10.83-1.14-16.38-1.95l-1,1.39v1.88C260.38,52.65,262.6,53.62,265.25,54.34Z"/><polygon class="9236b3ac-3200-40ee-a563-deb131d9e64f" points="280.41 60.59 280.41 60.59 278.44 57.71 278.44 57.71 280.41 60.59"/><path class="9236b3ac-3200-40ee-a563-deb131d9e64f" d="M260.29,57.16l3,4.4c.63.2,1.26.4,1.93.59a20.93,20.93,0,0,0,8.77.36c2.23-.37,4.26-1.34,6.42-1.92l-2-2.88c-1.12.36-2.22.77-3.39,1.1C269.73,60.33,265.2,58.2,260.29,57.16Z"/><polygon class="9236b3ac-3200-40ee-a563-deb131d9e64f" points="285.45 67.99 285.45 67.99 283.13 64.59 283.13 64.59 285.45 67.99"/><polygon class="9236b3ac-3200-40ee-a563-deb131d9e64f" points="269.42 70.58 269.44 70.6 269.44 70.6 269.42 70.58"/><path class="9236b3ac-3200-40ee-a563-deb131d9e64f" d="M274,70.32c2.85-.47,5.38-1.95,8.26-2.29a15.81,15.81,0,0,1,3.22,0l-2.32-3.4-.89.07c-2.58.23-4.77,1.26-7.21,2a16.27,16.27,0,0,1-8.32,0l2.71,4,0,0A22,22,0,0,0,274,70.32Z"/><polygon class="9236b3ac-3200-40ee-a563-deb131d9e64f" points="291.83 77.36 291.83 77.36 288.75 72.85 288.75 72.85 291.83 77.36"/><polygon class="9236b3ac-3200-40ee-a563-deb131d9e64f" points="272.37 74.91 272.37 74.91 274.49 78.02 274.49 78.02 272.37 74.91"/><path class="9236b3ac-3200-40ee-a563-deb131d9e64f" d="M282.21,72.46c-2.57.24-4.76,1.27-7.21,2a13.28,13.28,0,0,1-2.63.48L274.49,78c2.63-.56,5-1.86,7.71-2.18a20,20,0,0,1,9.41,1.45l.22.07-3.08-4.51A21.35,21.35,0,0,0,282.21,72.46Z"/><polygon class="9236b3ac-3200-40ee-a563-deb131d9e64f" points="276.94 81.61 276.94 81.61 278.88 84.46 278.88 84.46 276.94 81.61"/><path class="9236b3ac-3200-40ee-a563-deb131d9e64f" d="M282.18,83.65a20,20,0,0,1,9.41,1.45,20.42,20.42,0,0,0,6.31,1.18l-2.53-3.72a29.82,29.82,0,0,1-4.12-1.19,21.11,21.11,0,0,0-9.06-1.1,23,23,0,0,0-5.25,1.34l1.94,2.85A16.08,16.08,0,0,1,282.18,83.65Z"/><polygon class="9236b3ac-3200-40ee-a563-deb131d9e64f" points="282.15 89.26 281.41 88.18 281.41 88.18 282.15 89.26 291.54 89.29 291.54 89.29 282.15 89.26"/><path class="9236b3ac-3200-40ee-a563-deb131d9e64f" d="M254.68,89.18h2.6v-.07H254.7A.25.25,0,0,1,254.68,89.18Z"/><path class="9236b3ac-3200-40ee-a563-deb131d9e64f" d="M291.54,89.29l-.32-.11a20.91,20.91,0,0,0-9.05-1.1l-.76.1.74,1.08Z"/><path class="377500ae-7bd5-48a5-ba69-0d99a8a16adb" d="M254.7,89.11a1.51,1.51,0,0,1,1.58-1.21c.34,0,.67,0,1,.06l0-4.42c-.33,0-.66-.06-1-.07-2.17-.06-2.16-3.44,0-3.38.34,0,.67,0,1,.06V75.73c-.33,0-.66-.06-1-.07-2.18-.06-2.17-3.43,0-3.38l1,.06V67.92c-.32,0-.66-.06-1-.07-2.17-.06-2.16-3.43,0-3.38.34,0,.67,0,1,.06l0-4.42c-.33,0-.66-.06-1-.07-2.17,0-2.16-3.43,0-3.38.34,0,.67,0,1,.07V52.9h0v-.6c-.33,0-.66-.06-1-.07-2.18,0-2.17-3.43,0-3.37.33,0,.67,0,1,.06V44.49c-.32,0-.66-.06-1-.07-2.17-.05-2.16-3.43,0-3.37.34,0,.67,0,1,.06l0-4.43c-.33,0-.66-.06-1-.06-2.17-.06-2.16-3.44,0-3.38.34,0,.68,0,1,.06V28.87c-.33,0-.66-.05-1-.06-2.18-.06-2.17-3.44,0-3.38.34,0,.67,0,1,.06V21.07c-.32,0-.65-.06-1-.07-2.17-.06-2.16-3.44,0-3.38.34,0,.67,0,1,.06v-3l-16.46,0,0,10.64-.19,63.8Z"/><polygon class="377500ae-7bd5-48a5-ba69-0d99a8a16adb" points="257.49 21.07 257.47 25.49 257.46 28.88 257.45 33.3 257.44 36.68 257.43 41.11 257.41 44.49 257.4 48.92 257.39 50.93 257.39 50.93 257.39 50.93 257.73 50.45 257.83 14.68 257.5 14.68 257.5 17.68 257.49 21.07"/><polygon class="377500ae-7bd5-48a5-ba69-0d99a8a16adb" points="241.03 14.63 241 25.27 241.03 14.63 241.03 14.63"/><polygon class="377500ae-7bd5-48a5-ba69-0d99a8a16adb" points="257.39 52.9 257.39 52.9 257.38 56.73 257.37 60.11 257.35 64.53 257.34 67.92 257.33 72.34 257.32 75.73 257.31 80.15 257.3 83.53 257.28 87.96 257.28 89.11 257.61 89.12 257.72 53.39 257.39 52.91 257.39 52.9"/><path class="377500ae-7bd5-48a5-ba69-0d99a8a16adb" d="M257.72,52.33l-.33,0v.6l.33.49Z"/><polygon class="377500ae-7bd5-48a5-ba69-0d99a8a16adb" points="257.39 50.93 257.73 50.45 257.73 50.45 257.39 50.93 257.39 50.93"/><polygon class="377500ae-7bd5-48a5-ba69-0d99a8a16adb" points="257.39 52.9 257.39 52.91 257.72 53.39 257.72 53.39 257.39 52.9"/><path class="377500ae-7bd5-48a5-ba69-0d99a8a16adb" d="M256.49,17.62c-2.17-.06-2.18,3.32,0,3.38.35,0,.68,0,1,.07l0-3.39C257.16,17.65,256.83,17.63,256.49,17.62Z"/><path class="377500ae-7bd5-48a5-ba69-0d99a8a16adb" d="M256.47,25.43c-2.18-.06-2.19,3.32,0,3.38.34,0,.67,0,1,.06V25.49C257.14,25.46,256.81,25.44,256.47,25.43Z"/><path class="377500ae-7bd5-48a5-ba69-0d99a8a16adb" d="M256.44,33.24c-2.17-.06-2.18,3.32,0,3.38.35,0,.68,0,1,.06V33.3C257.12,33.27,256.78,33.25,256.44,33.24Z"/><path class="377500ae-7bd5-48a5-ba69-0d99a8a16adb" d="M256.42,41.05c-2.17-.06-2.18,3.32,0,3.37.34,0,.68,0,1,.07V41.11C257.09,41.08,256.76,41.06,256.42,41.05Z"/><path class="377500ae-7bd5-48a5-ba69-0d99a8a16adb" d="M257.4,50.93v-2c-.33,0-.67-.06-1-.06-2.18-.06-2.19,3.32,0,3.37.34,0,.67,0,1,.07V50.93Z"/><path class="377500ae-7bd5-48a5-ba69-0d99a8a16adb" d="M257.73,50.45l-.33.48V52.3l.33,0Z"/><path class="377500ae-7bd5-48a5-ba69-0d99a8a16adb" d="M256.37,56.66c-2.17,0-2.18,3.33,0,3.38.35,0,.68,0,1,.07V56.73C257,56.7,256.71,56.67,256.37,56.66Z"/><path class="377500ae-7bd5-48a5-ba69-0d99a8a16adb" d="M256.35,64.47c-2.17,0-2.18,3.32,0,3.38.34,0,.68,0,1,.07V64.53C257,64.51,256.69,64.48,256.35,64.47Z"/><path class="377500ae-7bd5-48a5-ba69-0d99a8a16adb" d="M256.33,72.28c-2.18,0-2.19,3.32,0,3.38.34,0,.67,0,1,.07V72.34Z"/><path class="377500ae-7bd5-48a5-ba69-0d99a8a16adb" d="M256.3,80.09c-2.17-.06-2.18,3.32,0,3.38.35,0,.68,0,1,.07V80.15C257,80.12,256.64,80.1,256.3,80.09Z"/><path class="377500ae-7bd5-48a5-ba69-0d99a8a16adb" d="M256.28,87.9a1.51,1.51,0,0,0-1.58,1.21h2.58V88C257,87.93,256.62,87.91,256.28,87.9Z"/></svg>