<svg id="d07c4a36-ce4d-49f0-b435-d7fe475b1f15" data-name="Layer 1" xmlns="http://www.w3.org/2000/svg" viewBox="0 0 32 32"><defs><style>.c8389482-275e-4f8a-a325-6633420f8afa{fill:#f6f6f6;}</style></defs><title>phone_white</title><path class="c8389482-275e-4f8a-a325-6633420f8afa" d="M19.87,28.14A18.61,18.61,0,0,1,4,13c1.15-.18,2.15-.43,3.3-.61,1.55,7,5.92,11.13,13,12.35C20.11,25.89,20,27,19.87,28.14Z"/><path class="c8389482-275e-4f8a-a325-6633420f8afa" d="M4.74,15.66s-1.91-4.52-.3-7.59C5.24,6.53,8.2,5,9.63,5.36c1,.26,2.77,7.61.06,8.58-1,.37-1.63.16-1.38,1.57S4.74,15.66,4.74,15.66Z"/><path class="c8389482-275e-4f8a-a325-6633420f8afa" d="M17.41,27.55S22,29.24,25,27.5c1.5-.88,2.91-3.92,2.47-5.32-.31-1-7.74-2.4-8.58.34-.31,1-.08,1.64-1.49,1.46S17.41,27.55,17.41,27.55Z"/></svg>