<svg id="148fd77a-4559-435b-8470-43d78f05685e" data-name="Layer 1" xmlns="http://www.w3.org/2000/svg" viewBox="0 0 32 32"><defs><style>.\38 dab7fe2-b425-44cc-80b5-5bb1a58fa8ae{fill:#ec6608;}.fd151700-7513-427e-b1a9-766b558db495{fill:#fff;}</style></defs><title>place_marker copy</title><circle class="8dab7fe2-b425-44cc-80b5-5bb1a58fa8ae" cx="16.06" cy="11.67" r="10.82"/><polygon class="8dab7fe2-b425-44cc-80b5-5bb1a58fa8ae" points="16.06 31.15 6.81 17.28 25.32 17.26 16.06 31.15"/><circle class="fd151700-7513-427e-b1a9-766b558db495" cx="16.07" cy="11.67" r="9.05"/><path class="8dab7fe2-b425-44cc-80b5-5bb1a58fa8ae" d="M19.18,14.28c3.24-4,3.3-3.6,5.05-4.59.16-.1.05-.62-.48-.53a7.65,7.65,0,0,0-2.54,1.28l-2.85,3.05a2.46,2.46,0,0,1-3.45-.17A2.45,2.45,0,0,1,14.5,9.9s.1-.18,2.85-3.06a7.27,7.27,0,0,0,1-2.72c.05-.53-.39-.49-.48-.29-.95,2.33,0,1.12-4.18,5.3a3.71,3.71,0,0,0,.19,5.33A3.68,3.68,0,0,0,19.18,14.28Z"/><path class="8dab7fe2-b425-44cc-80b5-5bb1a58fa8ae" d="M15.49,13.55l-.86-.8a1.28,1.28,0,0,0-1.21-.32l-.12,0a1.37,1.37,0,0,0-.85.64l-.89,1.55a1.35,1.35,0,0,0,.25,1.64l.36.33a1.34,1.34,0,0,0,1.65.14l1.48-1a1.32,1.32,0,0,0,.58-.89l0-.13A1.33,1.33,0,0,0,15.49,13.55Z"/><rect class="8dab7fe2-b425-44cc-80b5-5bb1a58fa8ae" x="7.7" y="15.61" width="8.44" height="1.86" transform="translate(32.14 19.1) rotate(132.99)"/><circle class="fd151700-7513-427e-b1a9-766b558db495" cx="13.54" cy="14.8" r="0.39"/></svg>