<svg id="e3cf290c-ffa9-4383-af17-ca0ed0a5d4f0" data-name="Layer 1" xmlns="http://www.w3.org/2000/svg" viewBox="0 0 32 32"><defs><style>.\38 20855cc-0320-4aad-86bd-e27ebee98524{fill:#fff;}.\33 9fe03c1-e41d-4c85-beb1-b73b45212192{fill:#ec6608;}</style></defs><title>pickuptool_clamps2_border</title><rect class="820855cc-0320-4aad-86bd-e27ebee98524" x="0.5" y="0.62" width="30.88" height="30.88" rx="11.5" ry="11.5"/><path class="39fe03c1-e41d-4c85-beb1-b73b45212192" d="M19.88,1.12a11,11,0,0,1,11,11V20a11,11,0,0,1-11,11H12A11,11,0,0,1,1,20V12.12a11,11,0,0,1,11-11h7.88m0-1H12a12,12,0,0,0-12,12V20A12,12,0,0,0,12,32h7.88a12,12,0,0,0,12-12V12.12a12,12,0,0,0-12-12Z"/><path class="39fe03c1-e41d-4c85-beb1-b73b45212192" d="M19.93,20.41c5.28-6.06,5.35-5.44,8.13-6.89.26-.14.13-1-.72-.84a11.54,11.54,0,0,0-4,1.85l-4.63,4.6c-1.35,1.36-3.76,1.16-5.36-.45s-1.82-4-.46-5.37c0,0,.17-.26,4.62-4.61a11.63,11.63,0,0,0,1.66-4.19c.1-.84-.59-.8-.73-.48-1.61,3.58,0,1.75-6.82,8a5.82,5.82,0,0,0,0,8.34A5.76,5.76,0,0,0,19.93,20.41Z"/><path class="39fe03c1-e41d-4c85-beb1-b73b45212192" d="M14.25,19.1l-1.37-1.37a2,2,0,0,0-1.79-.54l-.28.06a2,2,0,0,0-1.29.89L8,20.62a2,2,0,0,0,.29,2.45l.65.65a2,2,0,0,0,2.44.29l2.47-1.52a2,2,0,0,0,.91-1.3l.06-.3A2,2,0,0,0,14.25,19.1Z"/><rect class="39fe03c1-e41d-4c85-beb1-b73b45212192" x="1.88" y="22.09" width="13.18" height="2.91" transform="translate(31.1 34.2) rotate(135)"/><circle class="820855cc-0320-4aad-86bd-e27ebee98524" cx="11.09" cy="20.91" r="0.62"/></svg>